%TF.GenerationSoftware,KiCad,Pcbnew,(6.0.2)*%
%TF.CreationDate,2022-11-22T14:27:25-06:00*%
%TF.ProjectId,REF1936,52454631-3933-4362-9e6b-696361645f70,rev?*%
%TF.SameCoordinates,Original*%
%TF.FileFunction,Copper,L2,Bot*%
%TF.FilePolarity,Positive*%
%FSLAX46Y46*%
G04 Gerber Fmt 4.6, Leading zero omitted, Abs format (unit mm)*
G04 Created by KiCad (PCBNEW (6.0.2)) date 2022-11-22 14:27:25*
%MOMM*%
%LPD*%
G01*
G04 APERTURE LIST*
G04 Aperture macros list*
%AMRoundRect*
0 Rectangle with rounded corners*
0 $1 Rounding radius*
0 $2 $3 $4 $5 $6 $7 $8 $9 X,Y pos of 4 corners*
0 Add a 4 corners polygon primitive as box body*
4,1,4,$2,$3,$4,$5,$6,$7,$8,$9,$2,$3,0*
0 Add four circle primitives for the rounded corners*
1,1,$1+$1,$2,$3*
1,1,$1+$1,$4,$5*
1,1,$1+$1,$6,$7*
1,1,$1+$1,$8,$9*
0 Add four rect primitives between the rounded corners*
20,1,$1+$1,$2,$3,$4,$5,0*
20,1,$1+$1,$4,$5,$6,$7,0*
20,1,$1+$1,$6,$7,$8,$9,0*
20,1,$1+$1,$8,$9,$2,$3,0*%
G04 Aperture macros list end*
%TA.AperFunction,ComponentPad*%
%ADD10R,2.000000X1.200000*%
%TD*%
%TA.AperFunction,SMDPad,CuDef*%
%ADD11R,1.450000X1.150000*%
%TD*%
%TA.AperFunction,SMDPad,CuDef*%
%ADD12R,1.000000X4.000000*%
%TD*%
%TA.AperFunction,SMDPad,CuDef*%
%ADD13R,1.000000X3.500000*%
%TD*%
%TA.AperFunction,SMDPad,CuDef*%
%ADD14R,2.250000X0.800000*%
%TD*%
%TA.AperFunction,SMDPad,CuDef*%
%ADD15R,1.400000X1.800000*%
%TD*%
%TA.AperFunction,ComponentPad*%
%ADD16C,1.800000*%
%TD*%
%TA.AperFunction,SMDPad,CuDef*%
%ADD17R,2.000000X3.000000*%
%TD*%
%TA.AperFunction,SMDPad,CuDef*%
%ADD18R,0.550000X1.630000*%
%TD*%
%TA.AperFunction,ComponentPad*%
%ADD19C,1.100000*%
%TD*%
%TA.AperFunction,SMDPad,CuDef*%
%ADD20R,0.800000X0.800000*%
%TD*%
%TA.AperFunction,SMDPad,CuDef*%
%ADD21RoundRect,0.093000X0.562000X-0.372000X0.562000X0.372000X-0.562000X0.372000X-0.562000X-0.372000X0*%
%TD*%
%TA.AperFunction,SMDPad,CuDef*%
%ADD22RoundRect,0.131000X0.524000X-1.489000X0.524000X1.489000X-0.524000X1.489000X-0.524000X-1.489000X0*%
%TD*%
%TA.AperFunction,SMDPad,CuDef*%
%ADD23RoundRect,0.075000X0.662500X0.075000X-0.662500X0.075000X-0.662500X-0.075000X0.662500X-0.075000X0*%
%TD*%
%TA.AperFunction,SMDPad,CuDef*%
%ADD24RoundRect,0.075000X0.075000X0.662500X-0.075000X0.662500X-0.075000X-0.662500X0.075000X-0.662500X0*%
%TD*%
%TA.AperFunction,ViaPad*%
%ADD25C,0.500000*%
%TD*%
%TA.AperFunction,Conductor*%
%ADD26C,0.200000*%
%TD*%
G04 APERTURE END LIST*
D10*
%TO.P,J5,1,Pin_1*%
%TO.N,/PIC.VPP*%
X169180000Y-74177000D03*
%TO.P,J5,2,Pin_2*%
%TO.N,/VCC*%
X169180000Y-75677000D03*
%TO.P,J5,3,Pin_3*%
%TO.N,/GND*%
X169180000Y-77177000D03*
%TO.P,J5,4,Pin_4*%
%TO.N,/USB.D+*%
X169180000Y-78677000D03*
%TO.P,J5,5,Pin_5*%
%TO.N,/USB.D-*%
X169180000Y-80177000D03*
%TO.P,J5,6,Pin_6*%
%TO.N,unconnected-(J5-Pad6)*%
X169180000Y-81677000D03*
%TD*%
D11*
%TO.P,L2,1,1*%
%TO.N,/VCC*%
X166688500Y-78624000D03*
%TO.P,L2,2,2*%
%TO.N,/VOUT*%
X166687500Y-76838000D03*
%TD*%
D12*
%TO.P,J3,1,Pin_1*%
%TO.N,/VCC*%
X146184000Y-74734000D03*
D13*
%TO.P,J3,2,Pin_2*%
%TO.N,/PIC.RC1*%
X144192000Y-74964000D03*
%TO.P,J3,3,Pin_3*%
%TO.N,/PIC.RC0*%
X142169000Y-74974000D03*
%TO.P,J3,4,Pin_4*%
%TO.N,/PIC.RC3*%
X140144000Y-74969000D03*
%TO.P,J3,5,Pin_5*%
%TO.N,/PIC.RC4*%
X138124000Y-74958000D03*
%TO.P,J3,6,Pin_6*%
%TO.N,/PIC.RC5*%
X136097000Y-74966000D03*
D12*
%TO.P,J3,7,Pin_7*%
%TO.N,/GND*%
X134115000Y-74732000D03*
%TD*%
D14*
%TO.P,J4,1,DAT2*%
%TO.N,/SD.Pin1*%
X155620000Y-81637500D03*
%TO.P,J4,2,DAT3/CD*%
%TO.N,/SD.Pin2*%
X155620000Y-82737500D03*
%TO.P,J4,3,CMD*%
%TO.N,/GND*%
X155620000Y-83837500D03*
%TO.P,J4,4,VDD*%
%TO.N,/SD.Pin4*%
X155620000Y-84937500D03*
%TO.P,J4,5,CLK*%
%TO.N,/VCC*%
X155620000Y-86037500D03*
%TO.P,J4,6,VSS*%
%TO.N,/SD.Pin6*%
X155620000Y-87137500D03*
%TO.P,J4,7,DAT0*%
%TO.N,/SD.Pin7*%
X155620000Y-88237500D03*
%TO.P,J4,8,DAT1*%
%TO.N,/SD.Pin8*%
X155620000Y-89337500D03*
%TO.P,J4,9,DET_B*%
%TO.N,/SD.Pin9*%
X155620000Y-90437500D03*
%TO.P,J4,10,DET_A*%
%TO.N,/GND*%
X155620000Y-91537500D03*
D15*
%TO.P,J4,11,SHIELD*%
X163833000Y-92964500D03*
X163839000Y-79659500D03*
D16*
%TO.P,J4,12*%
%TO.N,N/C*%
X158845000Y-91291500D03*
X158845000Y-81357500D03*
%TD*%
D17*
%TO.P,J2,1,Pin_1*%
%TO.N,/GND*%
X148309000Y-76523200D03*
X155733000Y-76525200D03*
D18*
X153270000Y-78863200D03*
%TO.P,J2,2,Pin_2*%
%TO.N,/USB.D+*%
X152436000Y-78868200D03*
%TO.P,J2,3,Pin_3*%
%TO.N,/USB.D-*%
X151566000Y-78868200D03*
%TO.P,J2,4,Pin_4*%
%TO.N,/USB.5V*%
X150692000Y-78867200D03*
D19*
%TO.P,J2,5*%
%TO.N,N/C*%
X150534835Y-75298800D03*
X153597000Y-75301200D03*
%TD*%
D20*
%TO.P,C7,1*%
%TO.N,/GND*%
X143328000Y-77647000D03*
%TO.P,C7,2*%
%TO.N,/VCC*%
X142019000Y-77646000D03*
%TD*%
%TO.P,C6,1*%
%TO.N,/GND*%
X165943500Y-73402500D03*
%TO.P,C6,2*%
%TO.N,/USB.5V*%
X164634500Y-73401500D03*
%TD*%
D21*
%TO.P,U2,1,GND*%
%TO.N,/GND*%
X157715000Y-78369000D03*
%TO.P,U2,2,VO*%
%TO.N,/VOUT*%
X157715000Y-76079000D03*
D22*
X164405000Y-76079000D03*
D21*
%TO.P,U2,3,VI*%
%TO.N,/USB.5V*%
X157715000Y-73789000D03*
%TD*%
D23*
%TO.P,U6,1,GND*%
%TO.N,/GND*%
X150156000Y-81113000D03*
%TO.P,U6,2,IO67RSB1/GAA2*%
%TO.N,/SD.Pin2*%
X150156000Y-81613000D03*
%TO.P,U6,3,IO68RSB1*%
%TO.N,/SD.Pin4*%
X150156000Y-82113000D03*
%TO.P,U6,4,IO69RSB1/GAB2*%
%TO.N,/SD.Pin6*%
X150156000Y-82613000D03*
%TO.P,U6,5,IO132RSB1*%
%TO.N,/SD.Pin7*%
X150156000Y-83113000D03*
%TO.P,U6,6,IO131RSB1/GAC2*%
%TO.N,/SD.Pin8*%
X150156000Y-83613000D03*
%TO.P,U6,7,IO130RSB1*%
%TO.N,/SD.Pin1*%
X150156000Y-84113000D03*
%TO.P,U6,8,IO129RSB1*%
%TO.N,/SD.Pin9*%
X150156000Y-84613000D03*
%TO.P,U6,9,GND*%
%TO.N,/GND*%
X150156000Y-85113000D03*
%TO.P,U6,10,IO124RSB1/GFB1*%
%TO.N,/Game.CS1*%
X150156000Y-85613000D03*
%TO.P,U6,11,IO123RSB1/GFB0*%
%TO.N,/Game.CS2*%
X150156000Y-86113000D03*
%TO.P,U6,12,VCOMPLF*%
%TO.N,/GND*%
X150156000Y-86613000D03*
%TO.P,U6,13,IO122RSB1/GFA0*%
%TO.N,unconnected-(U6-Pad13)*%
X150156000Y-87113000D03*
%TO.P,U6,14,VCCPLF*%
%TO.N,/Actel.VCC*%
X150156000Y-87613000D03*
%TO.P,U6,15,IO121RSB1/GFA1*%
%TO.N,/PIC.RC6*%
X150156000Y-88113000D03*
%TO.P,U6,16,IO120RSB1/GFA2*%
%TO.N,/PIC.RC7*%
X150156000Y-88613000D03*
%TO.P,U6,17,VCC*%
%TO.N,/Actel.VCC*%
X150156000Y-89113000D03*
%TO.P,U6,18,VCCIB1*%
%TO.N,/VCC*%
X150156000Y-89613000D03*
%TO.P,U6,19,IO111RSB1/GEC0*%
%TO.N,/PIC.RB6*%
X150156000Y-90113000D03*
%TO.P,U6,20,IO110RSB1/GEB1*%
%TO.N,/PIC.RB4*%
X150156000Y-90613000D03*
%TO.P,U6,21,IO109RSB1/GEB1*%
%TO.N,/PIC.RC2*%
X150156000Y-91113000D03*
%TO.P,U6,22,IO108RSB1/GEA1*%
%TO.N,unconnected-(U6-Pad22)*%
X150156000Y-91613000D03*
%TO.P,U6,23,IO107RSB1/GEA0*%
%TO.N,/PIC.CLKOUT*%
X150156000Y-92113000D03*
%TO.P,U6,24,VMV1*%
%TO.N,/VCC*%
X150156000Y-92613000D03*
%TO.P,U6,25,GNDQ*%
%TO.N,/GND*%
X150156000Y-93113000D03*
D24*
%TO.P,U6,26,IO106RSB1/GEA2*%
%TO.N,/SST.A2*%
X148493500Y-94775500D03*
%TO.P,U6,27,IO105RSB1/GEB2*%
%TO.N,/SST.A3*%
X147993500Y-94775500D03*
%TO.P,U6,28,IO104RSB1/GEC2*%
%TO.N,/SST.A4*%
X147493500Y-94775500D03*
%TO.P,U6,29,IO102RSB1*%
%TO.N,/SST.A5*%
X146993500Y-94775500D03*
%TO.P,U6,30,IO100RSB1*%
%TO.N,/SST.A6*%
X146493500Y-94775500D03*
%TO.P,U6,31,IO99RSB1*%
%TO.N,/SST.A7*%
X145993500Y-94775500D03*
%TO.P,U6,32,IO97RSB1*%
%TO.N,/SST.A8*%
X145493500Y-94775500D03*
%TO.P,U6,33,IO96RSB1*%
%TO.N,/SST.A18*%
X144993500Y-94775500D03*
%TO.P,U6,34,IO95RSB1*%
%TO.N,/SST.A19*%
X144493500Y-94775500D03*
%TO.P,U6,35,IO94RSB1*%
%TO.N,/SST.WE*%
X143993500Y-94775500D03*
%TO.P,U6,36,IO93RSB1*%
%TO.N,/SST.A20*%
X143493500Y-94775500D03*
%TO.P,U6,37,VCC*%
%TO.N,/Actel.VCC*%
X142993500Y-94775500D03*
%TO.P,U6,38,GND*%
%TO.N,/GND*%
X142493500Y-94775500D03*
%TO.P,U6,39,VCCIB1*%
%TO.N,/VCC*%
X141993500Y-94775500D03*
%TO.P,U6,40,IO87RSB1*%
%TO.N,/SST.A9*%
X141493500Y-94775500D03*
%TO.P,U6,41,IO84RSB1*%
%TO.N,/SST.A10*%
X140993500Y-94775500D03*
%TO.P,U6,42,IO81RSB1*%
%TO.N,/SST.A11*%
X140493500Y-94775500D03*
%TO.P,U6,43,IO75RSB1*%
%TO.N,/SST.A12*%
X139993500Y-94775500D03*
%TO.P,U6,44,IO72RSB1/GDC2*%
%TO.N,/SST.A13*%
X139493500Y-94775500D03*
%TO.P,U6,45,IO71RSB1/GDB2*%
%TO.N,/SST.A14*%
X138993500Y-94775500D03*
%TO.P,U6,46,IO70RSB1/GDA2*%
%TO.N,/SST.A15*%
X138493500Y-94775500D03*
%TO.P,U6,47,TCK*%
%TO.N,/PIC.RC1*%
X137993500Y-94775500D03*
%TO.P,U6,48,TDI*%
%TO.N,/PIC.RC0*%
X137493500Y-94775500D03*
%TO.P,U6,49,TMS*%
%TO.N,/PIC.RC3*%
X136993500Y-94775500D03*
%TO.P,U6,50,VMV1*%
%TO.N,/VCC*%
X136493500Y-94775500D03*
D23*
%TO.P,U6,51,GND*%
%TO.N,/GND*%
X134831000Y-93113000D03*
%TO.P,U6,52,VPUMP*%
%TO.N,/VCC*%
X134831000Y-92613000D03*
%TO.P,U6,53*%
%TO.N,N/C*%
X134831000Y-92113000D03*
%TO.P,U6,54,TDO*%
%TO.N,/PIC.RC4*%
X134831000Y-91613000D03*
%TO.P,U6,55,TRST*%
%TO.N,/PIC.RC5*%
X134831000Y-91113000D03*
%TO.P,U6,56,VJTAG*%
%TO.N,/VCC*%
X134831000Y-90613000D03*
%TO.P,U6,57,GDA1/IO65RSB0*%
%TO.N,unconnected-(U6-Pad57)*%
X134831000Y-90113000D03*
%TO.P,U6,58,GDC0/IO62RSB0*%
%TO.N,unconnected-(U6-Pad58)*%
X134831000Y-89613000D03*
%TO.P,U6,59,GDC1/IO61RSB0*%
%TO.N,/CLK*%
X134831000Y-89113000D03*
%TO.P,U6,60,GCC2/IO59RSB0*%
%TO.N,/Sys.CS1*%
X134831000Y-88613000D03*
%TO.P,U6,61,GCB2/IO58RSB0*%
%TO.N,/Sys.Reset*%
X134831000Y-88113000D03*
%TO.P,U6,62,GCA0/IO56RSB0*%
%TO.N,/Sys.CS2*%
X134831000Y-87613000D03*
%TO.P,U6,63,GCA1/IO55RSB0*%
%TO.N,/D0*%
X134831000Y-87113000D03*
%TO.P,U6,64,GCC0/IO52RSB0*%
%TO.N,/D1*%
X134831000Y-86613000D03*
%TO.P,U6,65,GCC1/IO51RSB0*%
%TO.N,/D2*%
X134831000Y-86113000D03*
%TO.P,U6,66,VCCIB0*%
%TO.N,/VCC*%
X134831000Y-85613000D03*
%TO.P,U6,67,GND*%
%TO.N,/GND*%
X134831000Y-85113000D03*
%TO.P,U6,68,VCC*%
%TO.N,/Actel.VCC*%
X134831000Y-84613000D03*
%TO.P,U6,69,IO47RSB1*%
%TO.N,/D3*%
X134831000Y-84113000D03*
%TO.P,U6,70,GBC2/IO45RSB0*%
%TO.N,/D4*%
X134831000Y-83613000D03*
%TO.P,U6,71,GBB2/IO43RSB0*%
%TO.N,/D5*%
X134831000Y-83113000D03*
%TO.P,U6,72,IO42RSB0*%
%TO.N,/D6*%
X134831000Y-82613000D03*
%TO.P,U6,73,GBA2/IO41RSB0*%
%TO.N,/D7*%
X134831000Y-82113000D03*
%TO.P,U6,74,VMV0*%
%TO.N,/VCC*%
X134831000Y-81613000D03*
%TO.P,U6,75,GNDQ*%
%TO.N,/GND*%
X134831000Y-81113000D03*
D24*
%TO.P,U6,76,GBA1/IO40RSB0*%
%TO.N,/SST.DQ7*%
X136493500Y-79450500D03*
%TO.P,U6,77,GBA0/IO39RSB0*%
%TO.N,/SST.DQ6*%
X136993500Y-79450500D03*
%TO.P,U6,78,GBB1/IO38RSB0*%
%TO.N,/SST.DQ5*%
X137493500Y-79450500D03*
%TO.P,U6,79,GBB0/IO37RSB0*%
%TO.N,/SST.DQ4*%
X137993500Y-79450500D03*
%TO.P,U6,80,GBC1/IO36RSB0*%
%TO.N,/SST.DQ3*%
X138493500Y-79450500D03*
%TO.P,U6,81,GBC0/IO35RSB0*%
%TO.N,/SST.DQ2*%
X138993500Y-79450500D03*
%TO.P,U6,82,IO32RSB0*%
%TO.N,/SST.DQ1*%
X139493500Y-79450500D03*
%TO.P,U6,83,IO28RSB0*%
%TO.N,/SST.DQ0*%
X139993500Y-79450500D03*
%TO.P,U6,84,IO25RSB0*%
%TO.N,/SST.OE*%
X140493500Y-79450500D03*
%TO.P,U6,85,IO22RSB0*%
%TO.N,/SST.CE*%
X140993500Y-79450500D03*
%TO.P,U6,86,IO19RSB0*%
%TO.N,/SST.A1*%
X141493500Y-79450500D03*
%TO.P,U6,87,VCCIB0*%
%TO.N,/VCC*%
X141993500Y-79450500D03*
%TO.P,U6,88,GND*%
%TO.N,/GND*%
X142493500Y-79450500D03*
%TO.P,U6,89,VCC*%
%TO.N,/Actel.VCC*%
X142993500Y-79450500D03*
%TO.P,U6,90,IO15RSB0*%
%TO.N,/SST.A0*%
X143493500Y-79450500D03*
%TO.P,U6,91,IO13RSB0*%
%TO.N,/SST.A17*%
X143993500Y-79450500D03*
%TO.P,U6,92,IO11RSB0*%
%TO.N,/SST.A16*%
X144493500Y-79450500D03*
%TO.P,U6,93,IO09RSB0*%
%TO.N,unconnected-(U6-Pad93)*%
X144993500Y-79450500D03*
%TO.P,U6,94,IO07RSB0*%
%TO.N,/IRQ*%
X145493500Y-79450500D03*
%TO.P,U6,95,GAC1/IO05RSB0*%
%TO.N,/Game.Reset*%
X145993500Y-79450500D03*
%TO.P,U6,96,GAC0/IO04RSB0*%
%TO.N,unconnected-(U6-Pad96)*%
X146493500Y-79450500D03*
%TO.P,U6,97,GAB1/IO03RSB0*%
%TO.N,unconnected-(U6-Pad97)*%
X146993500Y-79450500D03*
%TO.P,U6,98,GAB0/IO02RSB0*%
%TO.N,unconnected-(U6-Pad98)*%
X147493500Y-79450500D03*
%TO.P,U6,99,GAA1/IO01RSB0*%
%TO.N,unconnected-(U6-Pad99)*%
X147993500Y-79450500D03*
%TO.P,U6,100,GAA0/IO00RSB0*%
%TO.N,unconnected-(U6-Pad100)*%
X148493500Y-79450500D03*
%TD*%
D25*
%TO.N,/N{slash}C*%
X143691100Y-122365600D03*
X161509800Y-98057900D03*
%TO.N,/PIC.VPP*%
X152532300Y-105745500D03*
X155084600Y-107315200D03*
X157823800Y-103299800D03*
X160186800Y-105278800D03*
%TO.N,/USB.D-*%
X154349500Y-79179800D03*
X160047300Y-109614500D03*
X142339800Y-106631300D03*
X152455000Y-77651500D03*
%TO.N,/USB.D+*%
X144659400Y-109655100D03*
X145904200Y-115839500D03*
X145904200Y-117555800D03*
X160541000Y-108110600D03*
X160536500Y-113167900D03*
X151542500Y-80258200D03*
%TO.N,/USB.5V*%
X152635100Y-75528200D03*
X152885900Y-77127500D03*
%TO.N,/Game.Reset*%
X149011900Y-82607700D03*
%TO.N,/IRQ*%
X145615500Y-78306600D03*
X143412200Y-82884000D03*
X148641400Y-85381400D03*
X151500100Y-87886600D03*
X152081800Y-91892400D03*
X152427100Y-94261500D03*
X147844300Y-119616600D03*
%TO.N,/SST.A16*%
X147859500Y-82269200D03*
X157987900Y-86628600D03*
X159955700Y-89822500D03*
X159977500Y-92710900D03*
X153639000Y-118649400D03*
%TO.N,/SST.A17*%
X144657800Y-78165200D03*
X149736600Y-77218500D03*
X155375700Y-117160500D03*
X153030800Y-98468900D03*
X154182200Y-98732100D03*
%TO.N,/SST.A0*%
X147466200Y-82795600D03*
%TO.N,/SST.A1*%
X141210300Y-78088600D03*
%TO.N,/SST.CE*%
X141042800Y-80589600D03*
%TO.N,/SST.OE*%
X142661100Y-80684400D03*
%TO.N,/SST.DQ0*%
X140440500Y-78212500D03*
%TO.N,/SST.DQ1*%
X139005500Y-78300500D03*
X139173600Y-82115500D03*
X148828500Y-86756100D03*
X152605700Y-93605600D03*
X162104300Y-99359900D03*
%TO.N,/SST.DQ2*%
X162234900Y-94745100D03*
X155855100Y-92413000D03*
X148717300Y-84091200D03*
X141591400Y-82382200D03*
X141665300Y-81381900D03*
%TO.N,/SST.DQ3*%
X148448900Y-83133000D03*
%TO.N,/SST.DQ4*%
X148996700Y-84734800D03*
%TO.N,/SST.DQ5*%
X136600900Y-80703700D03*
X137090800Y-84463300D03*
X154760100Y-92410200D03*
X152122100Y-90995500D03*
X148454600Y-87334000D03*
%TO.N,/SST.DQ6*%
X156639000Y-101482200D03*
X149906800Y-94383700D03*
X147752300Y-86734100D03*
X137138000Y-82137800D03*
X136530800Y-78290200D03*
%TO.N,/SST.DQ7*%
X135385900Y-80472800D03*
X135985200Y-85267400D03*
X137926700Y-87117300D03*
X139005100Y-85790900D03*
X147197000Y-87101000D03*
X147665400Y-103310600D03*
X155084600Y-106665100D03*
%TO.N,/D7*%
X141463700Y-103424900D03*
X162266700Y-126742900D03*
X142841900Y-84872900D03*
%TO.N,/D6*%
X160902300Y-126662100D03*
X143496800Y-101555600D03*
X143866700Y-85523500D03*
%TO.N,/D5*%
X158530000Y-82672300D03*
X159236700Y-125536400D03*
X144998800Y-85104400D03*
%TO.N,/D4*%
X146471800Y-86599900D03*
X147661600Y-106476100D03*
X152596300Y-107268000D03*
%TO.N,/D3*%
X148250000Y-105358800D03*
X154526800Y-108665400D03*
X157249000Y-117658300D03*
X156416200Y-124754600D03*
X147769400Y-88698300D03*
%TO.N,/D2*%
X141757300Y-90618000D03*
X142673900Y-89624600D03*
X148755000Y-92060500D03*
X149565700Y-100959200D03*
X152219500Y-116456800D03*
%TO.N,/D1*%
X151716200Y-116032500D03*
X136339200Y-87037200D03*
X141787200Y-112207100D03*
X150997800Y-101464200D03*
%TO.N,/D0*%
X133664100Y-87571300D03*
X134003600Y-94485900D03*
X151693700Y-125707900D03*
X152138800Y-104733300D03*
%TO.N,/Sys.CS2*%
X138336700Y-88467700D03*
%TO.N,/Sys.Reset*%
X138832800Y-90170200D03*
%TO.N,/Sys.CS1*%
X136526800Y-88639400D03*
%TO.N,/CLK*%
X163127000Y-98555400D03*
X143272700Y-122866900D03*
X141226700Y-124384800D03*
%TO.N,/PIC.RC5*%
X135886000Y-77177100D03*
X138482700Y-90820400D03*
X141109900Y-108739200D03*
X149591300Y-105961500D03*
%TO.N,/PIC.RC4*%
X135973600Y-91789200D03*
X135018100Y-73377400D03*
X134775500Y-95623000D03*
X149009400Y-107356500D03*
X142281200Y-107399000D03*
X141044100Y-104943100D03*
%TO.N,/PIC.RC3*%
X134475000Y-94029700D03*
X134373100Y-77992000D03*
X149602000Y-104320600D03*
%TO.N,/PIC.RC0*%
X139851400Y-98027400D03*
X138393200Y-77990000D03*
X140589400Y-99061000D03*
%TO.N,/PIC.RC1*%
X141067500Y-73409700D03*
X140820000Y-92208200D03*
%TO.N,/SST.A15*%
X153168400Y-104645700D03*
%TO.N,/SST.A14*%
X153616900Y-110556700D03*
%TO.N,/SST.A13*%
X139458500Y-93611400D03*
X158306700Y-126213400D03*
X147344200Y-123367400D03*
%TO.N,/SST.A12*%
X154054500Y-111330500D03*
%TO.N,/SST.A11*%
X154026700Y-102488800D03*
%TO.N,/SST.A10*%
X155505000Y-113167400D03*
%TO.N,/SST.A9*%
X157762000Y-107787800D03*
%TO.N,/SST.A20*%
X158279700Y-108207000D03*
%TO.N,/SST.WE*%
X158639000Y-109183800D03*
%TO.N,/SST.A19*%
X159206100Y-102735500D03*
%TO.N,/SST.A18*%
X161517400Y-105154800D03*
%TO.N,/SST.A8*%
X160596600Y-103711500D03*
%TO.N,/SST.A7*%
X161246800Y-103733200D03*
%TO.N,/SST.A6*%
X162912600Y-105918600D03*
%TO.N,/SST.A5*%
X161897000Y-103804400D03*
%TO.N,/SST.A4*%
X161319400Y-102404100D03*
%TO.N,/SST.A3*%
X161862300Y-102780700D03*
%TO.N,/SST.A2*%
X161044200Y-106355900D03*
X161044200Y-115263900D03*
X165179400Y-119065900D03*
%TO.N,/PIC.CLKOUT*%
X148750100Y-92787800D03*
%TO.N,/PIC.RC2*%
X145724100Y-92112500D03*
%TO.N,/PIC.RB4*%
X144387100Y-91975100D03*
%TO.N,/PIC.RB6*%
X143631000Y-91152600D03*
%TO.N,/VCC*%
X142966100Y-112717600D03*
X150299500Y-115992100D03*
X159408900Y-86870400D03*
X156992900Y-74684300D03*
X155084600Y-108303700D03*
X153804500Y-92961600D03*
X141257400Y-88375600D03*
X141257400Y-87718900D03*
X161073000Y-93911300D03*
X159238800Y-93986200D03*
X139748900Y-92337400D03*
X137990500Y-81626300D03*
X138962500Y-87506800D03*
X143201300Y-76842700D03*
X149772600Y-108677900D03*
X160009000Y-78115000D03*
%TO.N,/PIC.RC7*%
X151703100Y-89662700D03*
%TO.N,/PIC.RC6*%
X149007500Y-88535900D03*
%TO.N,/Actel.VCC*%
X142315500Y-81311000D03*
X141513300Y-89301700D03*
X140092400Y-88529700D03*
X140024300Y-87529400D03*
X145991000Y-98903600D03*
X146121600Y-109468200D03*
X143807100Y-112623800D03*
%TO.N,/Game.CS2*%
X152534900Y-86327200D03*
X156870600Y-92721300D03*
X156502000Y-94098200D03*
%TO.N,/Game.CS1*%
X152481000Y-85677000D03*
%TO.N,/SD.Pin9*%
X152185500Y-85026800D03*
X157606700Y-90178200D03*
%TO.N,/SD.Pin1*%
X151314300Y-84292700D03*
X152742300Y-82325700D03*
%TO.N,/GND*%
X155568800Y-78426400D03*
X160408000Y-125164500D03*
X148830600Y-121193300D03*
X142565400Y-122654600D03*
X142767600Y-83159100D03*
X141755700Y-91646100D03*
X140641200Y-93349200D03*
X154582900Y-93709700D03*
X142466200Y-93132600D03*
X164300800Y-94298000D03*
%TD*%
D26*
%TO.N,/N{slash}C*%
X163797500Y-100345600D02*
X161509800Y-98057900D01*
X163797500Y-107067500D02*
X163797500Y-100345600D01*
X156147200Y-114717800D02*
X163797500Y-107067500D01*
X156077000Y-114717800D02*
X156147200Y-114717800D01*
X153966800Y-116828000D02*
X156077000Y-114717800D01*
X153966800Y-116920200D02*
X153966800Y-116828000D01*
X151484200Y-119402800D02*
X153966800Y-116920200D01*
X149418500Y-119402800D02*
X151484200Y-119402800D01*
X146455700Y-122365600D02*
X149418500Y-119402800D01*
X143691100Y-122365600D02*
X146455700Y-122365600D01*
%TO.N,/PIC.VPP*%
X154102000Y-107315200D02*
X152532300Y-105745500D01*
X155084600Y-107315200D02*
X154102000Y-107315200D01*
X158207800Y-103299800D02*
X157823800Y-103299800D01*
X160186800Y-105278800D02*
X158207800Y-103299800D01*
%TO.N,/USB.D-*%
X169180000Y-80177000D02*
X167929900Y-80177000D01*
X167242500Y-80864400D02*
X167929900Y-80177000D01*
X161842500Y-80864400D02*
X167242500Y-80864400D01*
X160157900Y-79179800D02*
X161842500Y-80864400D01*
X154349500Y-79179800D02*
X160157900Y-79179800D01*
X151566000Y-78868200D02*
X151566000Y-77803100D01*
X152303400Y-77803100D02*
X152455000Y-77651500D01*
X151566000Y-77803100D02*
X152303400Y-77803100D01*
X160047300Y-109827500D02*
X160047300Y-109614500D01*
X155857200Y-114017600D02*
X160047300Y-109827500D01*
X155787000Y-114017600D02*
X155857200Y-114017600D01*
X153266600Y-116538000D02*
X155787000Y-114017600D01*
X153266600Y-116630200D02*
X153266600Y-116538000D01*
X151778700Y-118118100D02*
X153266600Y-116630200D01*
X145741200Y-118118100D02*
X151778700Y-118118100D01*
X141285400Y-113662300D02*
X145741200Y-118118100D01*
X141285400Y-109271000D02*
X141285400Y-113662300D01*
X141610000Y-108946400D02*
X141285400Y-109271000D01*
X141610000Y-107361100D02*
X141610000Y-108946400D01*
X142339800Y-106631300D02*
X141610000Y-107361100D01*
%TO.N,/USB.D+*%
X169180000Y-78677000D02*
X170430100Y-78677000D01*
X145372700Y-115839500D02*
X145904200Y-115839500D01*
X142466000Y-112932800D02*
X145372700Y-115839500D01*
X142466000Y-111848500D02*
X142466000Y-112932800D01*
X144659400Y-109655100D02*
X142466000Y-111848500D01*
X159521800Y-109129800D02*
X160541000Y-108110600D01*
X159521800Y-109857900D02*
X159521800Y-109129800D01*
X155712200Y-113667500D02*
X159521800Y-109857900D01*
X155640900Y-113667500D02*
X155712200Y-113667500D01*
X152916500Y-116391900D02*
X155640900Y-113667500D01*
X152916500Y-116484700D02*
X152916500Y-116391900D01*
X151845400Y-117555800D02*
X152916500Y-116484700D01*
X145904200Y-117555800D02*
X151845400Y-117555800D01*
X152436000Y-78868200D02*
X152436000Y-79933300D01*
X165548000Y-108156400D02*
X165548000Y-83543100D01*
X160536500Y-113167900D02*
X165548000Y-108156400D01*
X169267600Y-83543100D02*
X165548000Y-83543100D01*
X170430100Y-82380600D02*
X169267600Y-83543100D01*
X170430100Y-78677000D02*
X170430100Y-82380600D01*
X159745000Y-79933300D02*
X152436000Y-79933300D01*
X163354800Y-83543100D02*
X159745000Y-79933300D01*
X165548000Y-83543100D02*
X163354800Y-83543100D01*
X152111100Y-80258200D02*
X152436000Y-79933300D01*
X151542500Y-80258200D02*
X152111100Y-80258200D01*
%TO.N,/USB.5V*%
X150692000Y-78867200D02*
X150692000Y-77802100D01*
X151366600Y-77127500D02*
X150692000Y-77802100D01*
X152885900Y-77127500D02*
X151366600Y-77127500D01*
X153927700Y-73789000D02*
X157715000Y-73789000D01*
X152635100Y-75081600D02*
X153927700Y-73789000D01*
X152635100Y-75528200D02*
X152635100Y-75081600D01*
X163596900Y-73789000D02*
X163984400Y-73401500D01*
X157715000Y-73789000D02*
X163596900Y-73789000D01*
X164634500Y-73401500D02*
X163984400Y-73401500D01*
%TO.N,/VOUT*%
X157715000Y-76079000D02*
X164405000Y-76079000D01*
X165164000Y-76838000D02*
X166687500Y-76838000D01*
X164405000Y-76079000D02*
X165164000Y-76838000D01*
%TO.N,/Game.Reset*%
X145993500Y-80156000D02*
X145993500Y-79450500D01*
X147629500Y-81792000D02*
X145993500Y-80156000D01*
X147652400Y-81769100D02*
X147629500Y-81792000D01*
X148066700Y-81769100D02*
X147652400Y-81769100D01*
X148166600Y-81869000D02*
X148066700Y-81769100D01*
X148273200Y-81869000D02*
X148166600Y-81869000D01*
X149011900Y-82607700D02*
X148273200Y-81869000D01*
%TO.N,/IRQ*%
X145493500Y-78428600D02*
X145615500Y-78306600D01*
X145493500Y-79450500D02*
X145493500Y-78428600D01*
X152203300Y-88589800D02*
X151500100Y-87886600D01*
X152203300Y-90162900D02*
X152203300Y-88589800D01*
X151581900Y-90784300D02*
X152203300Y-90162900D01*
X151581900Y-91392500D02*
X151581900Y-90784300D01*
X152081800Y-91892400D02*
X151581900Y-91392500D01*
X143573800Y-83045600D02*
X143412200Y-82884000D01*
X145270600Y-83045600D02*
X143573800Y-83045600D01*
X146571100Y-84346100D02*
X145270600Y-83045600D01*
X147066200Y-84346100D02*
X146571100Y-84346100D01*
X148101500Y-85381400D02*
X147066200Y-84346100D01*
X148641400Y-85381400D02*
X148101500Y-85381400D01*
X152740300Y-94574700D02*
X152427100Y-94261500D01*
X154786200Y-94574700D02*
X152740300Y-94574700D01*
X155160000Y-94948500D02*
X154786200Y-94574700D01*
X156582300Y-94948500D02*
X155160000Y-94948500D01*
X163447400Y-101813600D02*
X156582300Y-94948500D01*
X163447400Y-106922500D02*
X163447400Y-101813600D01*
X156002200Y-114367700D02*
X163447400Y-106922500D01*
X155932000Y-114367700D02*
X156002200Y-114367700D01*
X153616700Y-116683000D02*
X155932000Y-114367700D01*
X153616700Y-116775200D02*
X153616700Y-116683000D01*
X151339200Y-119052700D02*
X153616700Y-116775200D01*
X148408200Y-119052700D02*
X151339200Y-119052700D01*
X147844300Y-119616600D02*
X148408200Y-119052700D01*
%TO.N,/SST.A16*%
X144493500Y-80169300D02*
X144493500Y-79450500D01*
X145619300Y-81295100D02*
X144493500Y-80169300D01*
X145995600Y-81295100D02*
X145619300Y-81295100D01*
X147069600Y-82369100D02*
X145995600Y-81295100D01*
X147185500Y-82369100D02*
X147069600Y-82369100D01*
X147259100Y-82295500D02*
X147185500Y-82369100D01*
X147673400Y-82295500D02*
X147259100Y-82295500D01*
X147747000Y-82369100D02*
X147673400Y-82295500D01*
X147759600Y-82369100D02*
X147747000Y-82369100D01*
X147859500Y-82269200D02*
X147759600Y-82369100D01*
X154805900Y-117482500D02*
X153639000Y-118649400D01*
X154806000Y-117482500D02*
X154805900Y-117482500D01*
X154806000Y-117017900D02*
X154806000Y-117482500D01*
X156405900Y-115418000D02*
X154806000Y-117017900D01*
X156437200Y-115418000D02*
X156405900Y-115418000D01*
X164497700Y-107357500D02*
X156437200Y-115418000D01*
X164497700Y-95768600D02*
X164497700Y-107357500D01*
X161440000Y-92710900D02*
X164497700Y-95768600D01*
X159977500Y-92710900D02*
X161440000Y-92710900D01*
X159955700Y-88596400D02*
X159955700Y-89822500D01*
X157987900Y-86628600D02*
X159955700Y-88596400D01*
%TO.N,/SST.A17*%
X144565500Y-78165200D02*
X144657800Y-78165200D01*
X143993500Y-78737200D02*
X144565500Y-78165200D01*
X143993500Y-79450500D02*
X143993500Y-78737200D01*
X149810600Y-77292500D02*
X149736600Y-77218500D01*
X149810600Y-79484000D02*
X149810600Y-77292500D01*
X151084900Y-80758300D02*
X149810600Y-79484000D01*
X151749700Y-80758300D02*
X151084900Y-80758300D01*
X151874600Y-80633400D02*
X151749700Y-80758300D01*
X157095000Y-80633400D02*
X151874600Y-80633400D01*
X157396200Y-80934600D02*
X157095000Y-80633400D01*
X157396200Y-82245700D02*
X157396200Y-80934600D01*
X164847800Y-89697300D02*
X157396200Y-82245700D01*
X164847800Y-107502500D02*
X164847800Y-89697300D01*
X155375700Y-116974600D02*
X164847800Y-107502500D01*
X155375700Y-117160500D02*
X155375700Y-116974600D01*
X153294000Y-98732100D02*
X153030800Y-98468900D01*
X154182200Y-98732100D02*
X153294000Y-98732100D01*
%TO.N,/SST.A0*%
X143493500Y-80160800D02*
X143493500Y-79450500D01*
X144977900Y-81645200D02*
X143493500Y-80160800D01*
X145850600Y-81645200D02*
X144977900Y-81645200D01*
X147151100Y-82945700D02*
X145850600Y-81645200D01*
X147466200Y-82945700D02*
X147151100Y-82945700D01*
X147466200Y-82795600D02*
X147466200Y-82945700D01*
%TO.N,/SST.A1*%
X141493500Y-78371800D02*
X141210300Y-78088600D01*
X141493500Y-79450500D02*
X141493500Y-78371800D01*
%TO.N,/SST.CE*%
X140993500Y-80540300D02*
X141042800Y-80589600D01*
X140993500Y-79450500D02*
X140993500Y-80540300D01*
%TO.N,/SST.OE*%
X140493500Y-80747700D02*
X140493500Y-79450500D01*
X140839600Y-81093800D02*
X140493500Y-80747700D01*
X141245900Y-81093800D02*
X140839600Y-81093800D01*
X141655300Y-80684400D02*
X141245900Y-81093800D01*
X142661100Y-80684400D02*
X141655300Y-80684400D01*
%TO.N,/SST.DQ0*%
X139993500Y-78659500D02*
X140440500Y-78212500D01*
X139993500Y-79450500D02*
X139993500Y-78659500D01*
%TO.N,/SST.DQ1*%
X139075400Y-78300500D02*
X139005500Y-78300500D01*
X139493500Y-78718600D02*
X139075400Y-78300500D01*
X139493500Y-79450500D02*
X139493500Y-78718600D01*
X153224700Y-94224600D02*
X152605700Y-93605600D01*
X154931200Y-94224600D02*
X153224700Y-94224600D01*
X155305000Y-94598400D02*
X154931200Y-94224600D01*
X156872400Y-94598400D02*
X155305000Y-94598400D01*
X161633900Y-99359900D02*
X156872400Y-94598400D01*
X162104300Y-99359900D02*
X161633900Y-99359900D01*
X148486000Y-86756100D02*
X148828500Y-86756100D01*
X146900000Y-85170100D02*
X148486000Y-86756100D01*
X146404900Y-85170100D02*
X146900000Y-85170100D01*
X145330600Y-84095800D02*
X146404900Y-85170100D01*
X143267400Y-84095800D02*
X145330600Y-84095800D01*
X142830900Y-83659300D02*
X143267400Y-84095800D01*
X140717400Y-83659300D02*
X142830900Y-83659300D01*
X139173600Y-82115500D02*
X140717400Y-83659300D01*
%TO.N,/SST.DQ2*%
X158187200Y-94745100D02*
X162234900Y-94745100D01*
X155855100Y-92413000D02*
X158187200Y-94745100D01*
X138993500Y-80156000D02*
X138993500Y-79450500D01*
X139382300Y-80544800D02*
X138993500Y-80156000D01*
X139795500Y-80544800D02*
X139382300Y-80544800D01*
X140694800Y-81444100D02*
X139795500Y-80544800D01*
X141603100Y-81444100D02*
X140694800Y-81444100D01*
X141665300Y-81381900D02*
X141603100Y-81444100D01*
X141664700Y-82308900D02*
X141591400Y-82382200D01*
X142785000Y-82308900D02*
X141664700Y-82308900D01*
X143060100Y-82033800D02*
X142785000Y-82308900D01*
X143764400Y-82033800D02*
X143060100Y-82033800D01*
X144076000Y-82345400D02*
X143764400Y-82033800D01*
X145560600Y-82345400D02*
X144076000Y-82345400D01*
X146861100Y-83645900D02*
X145560600Y-82345400D01*
X147356200Y-83645900D02*
X146861100Y-83645900D01*
X147801500Y-84091200D02*
X147356200Y-83645900D01*
X148717300Y-84091200D02*
X147801500Y-84091200D01*
%TO.N,/SST.DQ3*%
X138493500Y-80151100D02*
X138493500Y-79450500D01*
X139237300Y-80894900D02*
X138493500Y-80151100D01*
X139650500Y-80894900D02*
X139237300Y-80894900D01*
X140637600Y-81882000D02*
X139650500Y-80894900D01*
X142716800Y-81882000D02*
X140637600Y-81882000D01*
X142915100Y-81683700D02*
X142716800Y-81882000D01*
X143909400Y-81683700D02*
X142915100Y-81683700D01*
X144221000Y-81995300D02*
X143909400Y-81683700D01*
X145705600Y-81995300D02*
X144221000Y-81995300D01*
X147006100Y-83295800D02*
X145705600Y-81995300D01*
X147501200Y-83295800D02*
X147006100Y-83295800D01*
X147783800Y-83578400D02*
X147501200Y-83295800D01*
X148003500Y-83578400D02*
X147783800Y-83578400D01*
X148448900Y-83133000D02*
X148003500Y-83578400D01*
%TO.N,/SST.DQ4*%
X137993500Y-80188800D02*
X137993500Y-79450500D01*
X139049700Y-81245000D02*
X137993500Y-80188800D01*
X139505500Y-81245000D02*
X139049700Y-81245000D01*
X141142800Y-82882300D02*
X139505500Y-81245000D01*
X142337200Y-82882300D02*
X141142800Y-82882300D01*
X142560500Y-82659000D02*
X142337200Y-82882300D01*
X142930000Y-82659000D02*
X142560500Y-82659000D01*
X143205100Y-82383900D02*
X142930000Y-82659000D01*
X143619400Y-82383900D02*
X143205100Y-82383900D01*
X143931000Y-82695500D02*
X143619400Y-82383900D01*
X145415600Y-82695500D02*
X143931000Y-82695500D01*
X146716100Y-83996000D02*
X145415600Y-82695500D01*
X147211200Y-83996000D02*
X146716100Y-83996000D01*
X147950000Y-84734800D02*
X147211200Y-83996000D01*
X148996700Y-84734800D02*
X147950000Y-84734800D01*
%TO.N,/SST.DQ5*%
X153389400Y-92262800D02*
X152122100Y-90995500D01*
X154612800Y-92262800D02*
X153389400Y-92262800D01*
X154612800Y-92262900D02*
X154612800Y-92262800D01*
X154760100Y-92410200D02*
X154612800Y-92262900D01*
X136950700Y-80703700D02*
X136600900Y-80703700D01*
X137493500Y-80160900D02*
X136950700Y-80703700D01*
X137493500Y-79450500D02*
X137493500Y-80160900D01*
X137090800Y-84583900D02*
X137090800Y-84463300D01*
X138813400Y-86306500D02*
X137090800Y-84583900D01*
X141587900Y-86306500D02*
X138813400Y-86306500D01*
X142898300Y-87616900D02*
X141587900Y-86306500D01*
X148171700Y-87616900D02*
X142898300Y-87616900D01*
X148454600Y-87334000D02*
X148171700Y-87616900D01*
%TO.N,/SST.DQ6*%
X136993500Y-78752900D02*
X136530800Y-78290200D01*
X136993500Y-79450500D02*
X136993500Y-78752900D01*
X146538400Y-85520200D02*
X147752300Y-86734100D01*
X146259900Y-85520200D02*
X146538400Y-85520200D01*
X145185600Y-84445900D02*
X146259900Y-85520200D01*
X143122400Y-84445900D02*
X145185600Y-84445900D01*
X142767600Y-84091100D02*
X143122400Y-84445900D01*
X140399500Y-84091100D02*
X142767600Y-84091100D01*
X138446200Y-82137800D02*
X140399500Y-84091100D01*
X137138000Y-82137800D02*
X138446200Y-82137800D01*
X150798000Y-95274900D02*
X149906800Y-94383700D01*
X154496200Y-95274900D02*
X150798000Y-95274900D01*
X154877400Y-95656100D02*
X154496200Y-95274900D01*
X156299700Y-95656100D02*
X154877400Y-95656100D01*
X162747200Y-102103600D02*
X156299700Y-95656100D01*
X162747200Y-105376800D02*
X162747200Y-102103600D01*
X161238100Y-106885900D02*
X162747200Y-105376800D01*
X160862900Y-106885900D02*
X161238100Y-106885900D01*
X160506200Y-106529200D02*
X160862900Y-106885900D01*
X160506200Y-105714300D02*
X160506200Y-106529200D01*
X160710700Y-105509800D02*
X160506200Y-105714300D01*
X160710700Y-105095400D02*
X160710700Y-105509800D01*
X157097500Y-101482200D02*
X160710700Y-105095400D01*
X156639000Y-101482200D02*
X157097500Y-101482200D01*
%TO.N,/SST.DQ7*%
X135471200Y-80472800D02*
X135385900Y-80472800D01*
X136493500Y-79450500D02*
X135471200Y-80472800D01*
X154480600Y-106665100D02*
X155084600Y-106665100D01*
X152639000Y-104823500D02*
X154480600Y-106665100D01*
X152639000Y-104512700D02*
X152639000Y-104823500D01*
X151436900Y-103310600D02*
X152639000Y-104512700D01*
X147665400Y-103310600D02*
X151436900Y-103310600D01*
X137926700Y-86927000D02*
X137926700Y-87117300D01*
X136663300Y-85663600D02*
X137926700Y-86927000D01*
X136593700Y-85663600D02*
X136663300Y-85663600D01*
X136197500Y-85267400D02*
X136593700Y-85663600D01*
X135985200Y-85267400D02*
X136197500Y-85267400D01*
X139170600Y-85956400D02*
X139005100Y-85790900D01*
X141732900Y-85956400D02*
X139170600Y-85956400D01*
X142877500Y-87101000D02*
X141732900Y-85956400D01*
X147197000Y-87101000D02*
X142877500Y-87101000D01*
%TO.N,/D7*%
X161843500Y-127166100D02*
X162266700Y-126742900D01*
X145311000Y-127166100D02*
X161843500Y-127166100D01*
X140831600Y-122686700D02*
X145311000Y-127166100D01*
X140831600Y-121405900D02*
X140831600Y-122686700D01*
X139901800Y-120476100D02*
X140831600Y-121405900D01*
X139901800Y-104986800D02*
X139901800Y-120476100D01*
X141463700Y-103424900D02*
X139901800Y-104986800D01*
X136020000Y-82113000D02*
X134831000Y-82113000D01*
X136819800Y-82912800D02*
X136020000Y-82113000D01*
X138319800Y-82912800D02*
X136819800Y-82912800D01*
X139963000Y-84556000D02*
X138319800Y-82912800D01*
X142525000Y-84556000D02*
X139963000Y-84556000D01*
X142841900Y-84872900D02*
X142525000Y-84556000D01*
%TO.N,/D6*%
X160841200Y-126723200D02*
X160902300Y-126662100D01*
X155489700Y-126723200D02*
X160841200Y-126723200D01*
X153386500Y-124620000D02*
X155489700Y-126723200D01*
X143823300Y-124620000D02*
X153386500Y-124620000D01*
X141881900Y-122678600D02*
X143823300Y-124620000D01*
X141881900Y-116192900D02*
X141881900Y-122678600D01*
X140609800Y-114920800D02*
X141881900Y-116192900D01*
X140609800Y-106870900D02*
X140609800Y-114920800D01*
X143496800Y-103983900D02*
X140609800Y-106870900D01*
X143496800Y-101555600D02*
X143496800Y-103983900D01*
X136024900Y-82613000D02*
X134831000Y-82613000D01*
X136674800Y-83262900D02*
X136024900Y-82613000D01*
X138174800Y-83262900D02*
X136674800Y-83262900D01*
X139818000Y-84906100D02*
X138174800Y-83262900D01*
X142167900Y-84906100D02*
X139818000Y-84906100D01*
X142634800Y-85373000D02*
X142167900Y-84906100D01*
X143716200Y-85373000D02*
X142634800Y-85373000D01*
X143866700Y-85523500D02*
X143716200Y-85373000D01*
%TO.N,/D5*%
X165197900Y-89340200D02*
X158530000Y-82672300D01*
X165197900Y-107647500D02*
X165197900Y-89340200D01*
X155900100Y-116945300D02*
X165197900Y-107647500D01*
X155900100Y-124946000D02*
X155900100Y-116945300D01*
X156296500Y-125342400D02*
X155900100Y-124946000D01*
X159042700Y-125342400D02*
X156296500Y-125342400D01*
X159236700Y-125536400D02*
X159042700Y-125342400D01*
X136029800Y-83113000D02*
X134831000Y-83113000D01*
X136529800Y-83613000D02*
X136029800Y-83113000D01*
X138029800Y-83613000D02*
X136529800Y-83613000D01*
X139673000Y-85256200D02*
X138029800Y-83613000D01*
X142022900Y-85256200D02*
X139673000Y-85256200D01*
X142795800Y-86029100D02*
X142022900Y-85256200D01*
X144074100Y-86029100D02*
X142795800Y-86029100D01*
X144998800Y-85104400D02*
X144074100Y-86029100D01*
%TO.N,/D4*%
X151804400Y-106476100D02*
X152596300Y-107268000D01*
X147661600Y-106476100D02*
X151804400Y-106476100D01*
X136034700Y-83613000D02*
X134831000Y-83613000D01*
X136384800Y-83963100D02*
X136034700Y-83613000D01*
X137884800Y-83963100D02*
X136384800Y-83963100D01*
X139528000Y-85606300D02*
X137884800Y-83963100D01*
X141877900Y-85606300D02*
X139528000Y-85606300D01*
X142871500Y-86599900D02*
X141877900Y-85606300D01*
X146471800Y-86599900D02*
X142871500Y-86599900D01*
%TO.N,/D3*%
X156416200Y-118491100D02*
X156416200Y-124754600D01*
X157249000Y-117658300D02*
X156416200Y-118491100D01*
X154526800Y-108453200D02*
X154526800Y-108665400D01*
X151432400Y-105358800D02*
X154526800Y-108453200D01*
X148250000Y-105358800D02*
X151432400Y-105358800D01*
X136033300Y-84113000D02*
X134831000Y-84113000D01*
X136883700Y-84963400D02*
X136033300Y-84113000D01*
X136975200Y-84963400D02*
X136883700Y-84963400D01*
X138668400Y-86656600D02*
X136975200Y-84963400D01*
X141442900Y-86656600D02*
X138668400Y-86656600D01*
X143484600Y-88698300D02*
X141442900Y-86656600D01*
X147769400Y-88698300D02*
X143484600Y-88698300D01*
%TO.N,/D2*%
X151754500Y-100959200D02*
X149565700Y-100959200D01*
X156650700Y-105855400D02*
X151754500Y-100959200D01*
X156650700Y-110070600D02*
X156650700Y-105855400D01*
X152219500Y-114501800D02*
X156650700Y-110070600D01*
X152219500Y-116456800D02*
X152219500Y-114501800D01*
X140947000Y-90618000D02*
X141757300Y-90618000D01*
X138837000Y-88508000D02*
X140947000Y-90618000D01*
X138837000Y-88260700D02*
X138837000Y-88508000D01*
X138543900Y-87967600D02*
X138837000Y-88260700D01*
X137552600Y-87967600D02*
X138543900Y-87967600D01*
X137076500Y-87491500D02*
X137552600Y-87967600D01*
X137076500Y-87067000D02*
X137076500Y-87491500D01*
X136516000Y-86506500D02*
X137076500Y-87067000D01*
X136446400Y-86506500D02*
X136516000Y-86506500D01*
X136075300Y-86135400D02*
X136446400Y-86506500D01*
X134853400Y-86135400D02*
X136075300Y-86135400D01*
X134831000Y-86113000D02*
X134853400Y-86135400D01*
X142957600Y-89908300D02*
X142673900Y-89624600D01*
X142957600Y-91253100D02*
X142957600Y-89908300D01*
X144333000Y-92628500D02*
X142957600Y-91253100D01*
X148187000Y-92628500D02*
X144333000Y-92628500D01*
X148755000Y-92060500D02*
X148187000Y-92628500D01*
%TO.N,/D1*%
X135915000Y-86613000D02*
X136339200Y-87037200D01*
X134831000Y-86613000D02*
X135915000Y-86613000D01*
X151253400Y-116495300D02*
X151716200Y-116032500D01*
X145513900Y-116495300D02*
X151253400Y-116495300D01*
X141787200Y-112768600D02*
X145513900Y-116495300D01*
X141787200Y-112207100D02*
X141787200Y-112768600D01*
X151756900Y-101464200D02*
X150997800Y-101464200D01*
X156285000Y-105992300D02*
X151756900Y-101464200D01*
X156285000Y-109941000D02*
X156285000Y-105992300D01*
X151716200Y-114509800D02*
X156285000Y-109941000D01*
X151716200Y-116032500D02*
X151716200Y-114509800D01*
%TO.N,/D0*%
X134122400Y-87113000D02*
X133664100Y-87571300D01*
X134831000Y-87113000D02*
X134122400Y-87113000D01*
X136442900Y-96117100D02*
X142328300Y-102002500D01*
X136129900Y-96117100D02*
X136442900Y-96117100D01*
X135265500Y-95252700D02*
X136129900Y-96117100D01*
X135112500Y-95252700D02*
X135265500Y-95252700D01*
X134982700Y-95122900D02*
X135112500Y-95252700D01*
X134640600Y-95122900D02*
X134982700Y-95122900D01*
X134003600Y-94485900D02*
X134640600Y-95122900D01*
X142328300Y-104657300D02*
X142328300Y-102002500D01*
X140259700Y-106725900D02*
X142328300Y-104657300D01*
X140259700Y-118760600D02*
X140259700Y-106725900D01*
X141531800Y-120032700D02*
X140259700Y-118760600D01*
X141531800Y-122823600D02*
X141531800Y-120032700D01*
X144416100Y-125707900D02*
X141531800Y-122823600D01*
X151693700Y-125707900D02*
X144416100Y-125707900D01*
X152013500Y-104858600D02*
X152138800Y-104733300D01*
X147511600Y-104858600D02*
X152013500Y-104858600D01*
X143689700Y-101036700D02*
X147511600Y-104858600D01*
X143294100Y-101036700D02*
X143689700Y-101036700D01*
X142328300Y-102002500D02*
X143294100Y-101036700D01*
%TO.N,/Sys.CS2*%
X137557600Y-88467700D02*
X138336700Y-88467700D01*
X136702900Y-87613000D02*
X137557600Y-88467700D01*
X134831000Y-87613000D02*
X136702900Y-87613000D01*
%TO.N,/Sys.Reset*%
X138765000Y-90170200D02*
X138832800Y-90170200D01*
X136707800Y-88113000D02*
X138765000Y-90170200D01*
X134831000Y-88113000D02*
X136707800Y-88113000D01*
%TO.N,/Sys.CS1*%
X136500400Y-88613000D02*
X136526800Y-88639400D01*
X134831000Y-88613000D02*
X136500400Y-88613000D01*
%TO.N,/CLK*%
X140481500Y-123639600D02*
X141226700Y-124384800D01*
X140481500Y-121817200D02*
X140481500Y-123639600D01*
X137127900Y-118463600D02*
X140481500Y-121817200D01*
X137127900Y-97823500D02*
X137127900Y-118463600D01*
X136121700Y-96817300D02*
X137127900Y-97823500D01*
X135604700Y-96817300D02*
X136121700Y-96817300D01*
X134910500Y-96123100D02*
X135604700Y-96817300D01*
X134568400Y-96123100D02*
X134910500Y-96123100D01*
X133485200Y-95039900D02*
X134568400Y-96123100D01*
X133485200Y-89732800D02*
X133485200Y-95039900D01*
X134105000Y-89113000D02*
X133485200Y-89732800D01*
X134831000Y-89113000D02*
X134105000Y-89113000D01*
X164147600Y-99576000D02*
X163127000Y-98555400D01*
X164147600Y-107212500D02*
X164147600Y-99576000D01*
X156292200Y-115067900D02*
X164147600Y-107212500D01*
X156222000Y-115067900D02*
X156292200Y-115067900D01*
X154316900Y-116973000D02*
X156222000Y-115067900D01*
X154316900Y-117065200D02*
X154316900Y-116973000D01*
X151341500Y-120040600D02*
X154316900Y-117065200D01*
X149275800Y-120040600D02*
X151341500Y-120040600D01*
X146449500Y-122866900D02*
X149275800Y-120040600D01*
X143272700Y-122866900D02*
X146449500Y-122866900D01*
%TO.N,/PIC.RC5*%
X136097000Y-74966000D02*
X136097000Y-76966100D01*
X136097000Y-76966100D02*
X135886000Y-77177100D01*
X138190100Y-91113000D02*
X138482700Y-90820400D01*
X134831000Y-91113000D02*
X138190100Y-91113000D01*
X141109900Y-107151300D02*
X141109900Y-108739200D01*
X142299700Y-105961500D02*
X141109900Y-107151300D01*
X149591300Y-105961500D02*
X142299700Y-105961500D01*
%TO.N,/PIC.RC4*%
X138124000Y-74958000D02*
X138124000Y-72957900D01*
X135437600Y-72957900D02*
X135018100Y-73377400D01*
X138124000Y-72957900D02*
X135437600Y-72957900D01*
X135797400Y-91613000D02*
X135973600Y-91789200D01*
X134831000Y-91613000D02*
X135797400Y-91613000D01*
X141964000Y-104023200D02*
X141044100Y-104943100D01*
X141964000Y-102133300D02*
X141964000Y-104023200D01*
X136297900Y-96467200D02*
X141964000Y-102133300D01*
X135984900Y-96467200D02*
X136297900Y-96467200D01*
X135140700Y-95623000D02*
X135984900Y-96467200D01*
X134775500Y-95623000D02*
X135140700Y-95623000D01*
X142323700Y-107356500D02*
X149009400Y-107356500D01*
X142281200Y-107399000D02*
X142323700Y-107356500D01*
%TO.N,/PIC.RC3*%
X140144000Y-75548600D02*
X140144000Y-74969000D01*
X138657500Y-77035100D02*
X140144000Y-75548600D01*
X136929600Y-77035100D02*
X138657500Y-77035100D01*
X135972700Y-77992000D02*
X136929600Y-77035100D01*
X134373100Y-77992000D02*
X135972700Y-77992000D01*
X136993500Y-95551100D02*
X136993500Y-94775500D01*
X136682800Y-95861800D02*
X136993500Y-95551100D01*
X135347900Y-94902600D02*
X134475000Y-94029700D01*
X135410500Y-94902600D02*
X135347900Y-94902600D01*
X136274900Y-95767000D02*
X135410500Y-94902600D01*
X136587900Y-95767000D02*
X136274900Y-95767000D01*
X136682800Y-95861800D02*
X136587900Y-95767000D01*
X140891000Y-100070100D02*
X136682800Y-95861800D01*
X143222600Y-100070100D02*
X140891000Y-100070100D01*
X144659900Y-101507400D02*
X143222600Y-100070100D01*
X145155000Y-101507400D02*
X144659900Y-101507400D01*
X147618100Y-103970500D02*
X145155000Y-101507400D01*
X148375600Y-103970500D02*
X147618100Y-103970500D01*
X148725700Y-104320600D02*
X148375600Y-103970500D01*
X149602000Y-104320600D02*
X148725700Y-104320600D01*
%TO.N,/PIC.RC0*%
X142169000Y-74974000D02*
X142169000Y-76974100D01*
X139409100Y-76974100D02*
X138393200Y-77990000D01*
X142169000Y-76974100D02*
X139409100Y-76974100D01*
X137493500Y-95669500D02*
X139851400Y-98027400D01*
X137493500Y-94775500D02*
X137493500Y-95669500D01*
X139851400Y-98323000D02*
X139851400Y-98027400D01*
X140589400Y-99061000D02*
X139851400Y-98323000D01*
%TO.N,/PIC.RC1*%
X141513300Y-72963900D02*
X141067500Y-73409700D01*
X144192000Y-72963900D02*
X141513300Y-72963900D01*
X144192000Y-74964000D02*
X144192000Y-72963900D01*
X140089700Y-92938500D02*
X140820000Y-92208200D01*
X139089500Y-92938500D02*
X140089700Y-92938500D01*
X137993500Y-94034500D02*
X139089500Y-92938500D01*
X137993500Y-94775500D02*
X137993500Y-94034500D01*
%TO.N,/SST.A15*%
X153168400Y-104539500D02*
X153168400Y-104645700D01*
X151439400Y-102810500D02*
X153168400Y-104539500D01*
X146953200Y-102810500D02*
X151439400Y-102810500D01*
X145296900Y-101154200D02*
X146953200Y-102810500D01*
X144961000Y-101154200D02*
X145296900Y-101154200D01*
X143526800Y-99720000D02*
X144961000Y-101154200D01*
X142717700Y-99720000D02*
X143526800Y-99720000D01*
X138493500Y-95495800D02*
X142717700Y-99720000D01*
X138493500Y-94775500D02*
X138493500Y-95495800D01*
%TO.N,/SST.A14*%
X153838100Y-110556700D02*
X153616900Y-110556700D01*
X155584800Y-108810000D02*
X153838100Y-110556700D01*
X155584800Y-106354600D02*
X155584800Y-108810000D01*
X151690500Y-102460300D02*
X155584800Y-106354600D01*
X147098100Y-102460300D02*
X151690500Y-102460300D01*
X145441900Y-100804100D02*
X147098100Y-102460300D01*
X145106000Y-100804100D02*
X145441900Y-100804100D01*
X143671800Y-99369900D02*
X145106000Y-100804100D01*
X142887300Y-99369900D02*
X143671800Y-99369900D01*
X138993500Y-95476100D02*
X142887300Y-99369900D01*
X138993500Y-94775500D02*
X138993500Y-95476100D01*
%TO.N,/SST.A13*%
X139458500Y-94740500D02*
X139458500Y-93611400D01*
X139493500Y-94775500D02*
X139458500Y-94740500D01*
X152629000Y-123367400D02*
X147344200Y-123367400D01*
X155475000Y-126213400D02*
X152629000Y-123367400D01*
X158306700Y-126213400D02*
X155475000Y-126213400D01*
%TO.N,/SST.A12*%
X155934900Y-109450100D02*
X154054500Y-111330500D01*
X155934900Y-106209600D02*
X155934900Y-109450100D01*
X151730800Y-102005500D02*
X155934900Y-106209600D01*
X147138400Y-102005500D02*
X151730800Y-102005500D01*
X145586900Y-100454000D02*
X147138400Y-102005500D01*
X145251000Y-100454000D02*
X145586900Y-100454000D01*
X143816800Y-99019800D02*
X145251000Y-100454000D01*
X143473800Y-99019800D02*
X143816800Y-99019800D01*
X139993500Y-95539500D02*
X143473800Y-99019800D01*
X139993500Y-94775500D02*
X139993500Y-95539500D01*
%TO.N,/SST.A11*%
X153859100Y-102488800D02*
X154026700Y-102488800D01*
X151613000Y-100242700D02*
X153859100Y-102488800D01*
X145870700Y-100242700D02*
X151613000Y-100242700D01*
X145731900Y-100103900D02*
X145870700Y-100242700D01*
X145396000Y-100103900D02*
X145731900Y-100103900D01*
X143961800Y-98669700D02*
X145396000Y-100103900D01*
X143622300Y-98669700D02*
X143961800Y-98669700D01*
X140493500Y-95540900D02*
X143622300Y-98669700D01*
X140493500Y-94775500D02*
X140493500Y-95540900D01*
%TO.N,/SST.A10*%
X157057200Y-111615200D02*
X155505000Y-113167400D01*
X157057200Y-104784000D02*
X157057200Y-111615200D01*
X154252300Y-101979100D02*
X157057200Y-104784000D01*
X153844500Y-101979100D02*
X154252300Y-101979100D01*
X151758000Y-99892600D02*
X153844500Y-101979100D01*
X146015700Y-99892600D02*
X151758000Y-99892600D01*
X145876900Y-99753800D02*
X146015700Y-99892600D01*
X145638900Y-99753800D02*
X145876900Y-99753800D01*
X144204700Y-98319600D02*
X145638900Y-99753800D01*
X143772700Y-98319600D02*
X144204700Y-98319600D01*
X140993500Y-95540400D02*
X143772700Y-98319600D01*
X140993500Y-94775500D02*
X140993500Y-95540400D01*
%TO.N,/SST.A9*%
X157762000Y-104993700D02*
X157762000Y-107787800D01*
X154397300Y-101629000D02*
X157762000Y-104993700D01*
X153989500Y-101629000D02*
X154397300Y-101629000D01*
X151903000Y-99542500D02*
X153989500Y-101629000D01*
X146160700Y-99542500D02*
X151903000Y-99542500D01*
X146021900Y-99403700D02*
X146160700Y-99542500D01*
X145783900Y-99403700D02*
X146021900Y-99403700D01*
X144349800Y-97969600D02*
X145783900Y-99403700D01*
X144349800Y-97969500D02*
X144349800Y-97969600D01*
X143919500Y-97969500D02*
X144349800Y-97969500D01*
X141493500Y-95543500D02*
X143919500Y-97969500D01*
X141493500Y-94775500D02*
X141493500Y-95543500D01*
%TO.N,/SST.A20*%
X158279700Y-104986600D02*
X158279700Y-108207000D01*
X153400500Y-100107400D02*
X158279700Y-104986600D01*
X152963000Y-100107400D02*
X153400500Y-100107400D01*
X152048000Y-99192400D02*
X152963000Y-100107400D01*
X147195200Y-99192400D02*
X152048000Y-99192400D01*
X143493500Y-95490700D02*
X147195200Y-99192400D01*
X143493500Y-94775500D02*
X143493500Y-95490700D01*
%TO.N,/SST.WE*%
X158837300Y-108985500D02*
X158639000Y-109183800D01*
X158837300Y-105049100D02*
X158837300Y-108985500D01*
X153545500Y-99757300D02*
X158837300Y-105049100D01*
X153108000Y-99757300D02*
X153545500Y-99757300D01*
X152193000Y-98842300D02*
X153108000Y-99757300D01*
X147352400Y-98842300D02*
X152193000Y-98842300D01*
X143993500Y-95483400D02*
X147352400Y-98842300D01*
X143993500Y-94775500D02*
X143993500Y-95483400D01*
%TO.N,/SST.A19*%
X144493500Y-95488100D02*
X144493500Y-94775500D01*
X147088300Y-98082900D02*
X144493500Y-95488100D01*
X151928700Y-98082900D02*
X147088300Y-98082900D01*
X153191200Y-99345400D02*
X151928700Y-98082900D01*
X155816000Y-99345400D02*
X153191200Y-99345400D01*
X159206100Y-102735500D02*
X155816000Y-99345400D01*
%TO.N,/SST.A18*%
X144993500Y-95485200D02*
X144993500Y-94775500D01*
X147233900Y-97725600D02*
X144993500Y-95485200D01*
X153481200Y-97725600D02*
X147233900Y-97725600D01*
X153862400Y-98106800D02*
X153481200Y-97725600D01*
X155284700Y-98106800D02*
X153862400Y-98106800D01*
X159706200Y-102528300D02*
X155284700Y-98106800D01*
X159706200Y-103528500D02*
X159706200Y-102528300D01*
X161332500Y-105154800D02*
X159706200Y-103528500D01*
X161517400Y-105154800D02*
X161332500Y-105154800D01*
%TO.N,/SST.A8*%
X145493500Y-95490000D02*
X145493500Y-94775500D01*
X147379000Y-97375500D02*
X145493500Y-95490000D01*
X153626200Y-97375500D02*
X147379000Y-97375500D01*
X154007400Y-97756700D02*
X153626200Y-97375500D01*
X155429700Y-97756700D02*
X154007400Y-97756700D01*
X160056300Y-102383300D02*
X155429700Y-97756700D01*
X160056300Y-103171200D02*
X160056300Y-102383300D01*
X160596600Y-103711500D02*
X160056300Y-103171200D01*
%TO.N,/SST.A7*%
X145993500Y-95473600D02*
X145993500Y-94775500D01*
X147545300Y-97025400D02*
X145993500Y-95473600D01*
X153771200Y-97025400D02*
X147545300Y-97025400D01*
X154152400Y-97406600D02*
X153771200Y-97025400D01*
X155574700Y-97406600D02*
X154152400Y-97406600D01*
X160406400Y-102238300D02*
X155574700Y-97406600D01*
X160406400Y-102814000D02*
X160406400Y-102238300D01*
X161246800Y-103654400D02*
X160406400Y-102814000D01*
X161246800Y-103733200D02*
X161246800Y-103654400D01*
%TO.N,/SST.A6*%
X146493500Y-94056300D02*
X146493500Y-94775500D01*
X146793400Y-93756400D02*
X146493500Y-94056300D01*
X150868900Y-93756400D02*
X146793400Y-93756400D01*
X152037300Y-94924800D02*
X150868900Y-93756400D01*
X154641200Y-94924800D02*
X152037300Y-94924800D01*
X155015000Y-95298600D02*
X154641200Y-94924800D01*
X156437300Y-95298600D02*
X155015000Y-95298600D01*
X163097300Y-101958600D02*
X156437300Y-95298600D01*
X163097300Y-105733900D02*
X163097300Y-101958600D01*
X162912600Y-105918600D02*
X163097300Y-105733900D01*
%TO.N,/SST.A5*%
X146993500Y-95494900D02*
X146993500Y-94775500D01*
X148173900Y-96675300D02*
X146993500Y-95494900D01*
X153916200Y-96675300D02*
X148173900Y-96675300D01*
X154297400Y-97056500D02*
X153916200Y-96675300D01*
X155719700Y-97056500D02*
X154297400Y-97056500D01*
X160756500Y-102093300D02*
X155719700Y-97056500D01*
X160756500Y-102548400D02*
X160756500Y-102093300D01*
X161441200Y-103233100D02*
X160756500Y-102548400D01*
X161454000Y-103233100D02*
X161441200Y-103233100D01*
X161897000Y-103676100D02*
X161454000Y-103233100D01*
X161897000Y-103804400D02*
X161897000Y-103676100D01*
%TO.N,/SST.A4*%
X147493500Y-95499800D02*
X147493500Y-94775500D01*
X148318900Y-96325200D02*
X147493500Y-95499800D01*
X154061200Y-96325200D02*
X148318900Y-96325200D01*
X154442400Y-96706400D02*
X154061200Y-96325200D01*
X155864700Y-96706400D02*
X154442400Y-96706400D01*
X161319400Y-102161100D02*
X155864700Y-96706400D01*
X161319400Y-102404100D02*
X161319400Y-102161100D01*
%TO.N,/SST.A3*%
X147993500Y-95504700D02*
X147993500Y-94775500D01*
X148463900Y-95975100D02*
X147993500Y-95504700D01*
X154206200Y-95975100D02*
X148463900Y-95975100D01*
X154587400Y-96356300D02*
X154206200Y-95975100D01*
X156009700Y-96356300D02*
X154587400Y-96356300D01*
X161862300Y-102208900D02*
X156009700Y-96356300D01*
X161862300Y-102780700D02*
X161862300Y-102208900D01*
%TO.N,/SST.A2*%
X164846200Y-119065900D02*
X161044200Y-115263900D01*
X165179400Y-119065900D02*
X164846200Y-119065900D01*
X149343000Y-95625000D02*
X148493500Y-94775500D01*
X154351200Y-95625000D02*
X149343000Y-95625000D01*
X154732400Y-96006200D02*
X154351200Y-95625000D01*
X156154700Y-96006200D02*
X154732400Y-96006200D01*
X162397100Y-102248600D02*
X156154700Y-96006200D01*
X162397100Y-105003000D02*
X162397100Y-102248600D01*
X161044200Y-106355900D02*
X162397100Y-105003000D01*
%TO.N,/PIC.CLKOUT*%
X149424900Y-92113000D02*
X148750100Y-92787800D01*
X150156000Y-92113000D02*
X149424900Y-92113000D01*
%TO.N,/PIC.RC2*%
X146723600Y-91113000D02*
X145724100Y-92112500D01*
X150156000Y-91113000D02*
X146723600Y-91113000D01*
%TO.N,/PIC.RB4*%
X145749200Y-90613000D02*
X144387100Y-91975100D01*
X150156000Y-90613000D02*
X145749200Y-90613000D01*
%TO.N,/PIC.RB6*%
X144670600Y-90113000D02*
X143631000Y-91152600D01*
X150156000Y-90113000D02*
X144670600Y-90113000D01*
%TO.N,/VCC*%
X158576000Y-86037500D02*
X159408900Y-86870400D01*
X155620000Y-86037500D02*
X158576000Y-86037500D01*
X151191700Y-89888500D02*
X151191700Y-92613000D01*
X150916200Y-89613000D02*
X151191700Y-89888500D01*
X150156000Y-89613000D02*
X150916200Y-89613000D01*
X150156000Y-92613000D02*
X151191700Y-92613000D01*
X134117500Y-92613000D02*
X134831000Y-92613000D01*
X133843000Y-92338500D02*
X134117500Y-92613000D01*
X133843000Y-90860000D02*
X133843000Y-92338500D01*
X134090000Y-90613000D02*
X133843000Y-90860000D01*
X134831000Y-90613000D02*
X134090000Y-90613000D01*
X146184000Y-74734000D02*
X146184000Y-76984100D01*
X153455900Y-92613000D02*
X153804500Y-92961600D01*
X151191700Y-92613000D02*
X153455900Y-92613000D01*
X134033800Y-93513400D02*
X135901200Y-93513400D01*
X133843100Y-93322700D02*
X134033800Y-93513400D01*
X133843100Y-92903300D02*
X133843100Y-93322700D01*
X134133400Y-92613000D02*
X133843100Y-92903300D01*
X134831000Y-92613000D02*
X134133400Y-92613000D01*
X141993500Y-78321600D02*
X142019000Y-78296100D01*
X141993500Y-79450500D02*
X141993500Y-78321600D01*
X142019000Y-77646000D02*
X142019000Y-78296100D01*
X142019000Y-77646000D02*
X142669100Y-77646000D01*
X137977200Y-81613000D02*
X137990500Y-81626300D01*
X134831000Y-81613000D02*
X137977200Y-81613000D01*
X135901200Y-94183200D02*
X135901200Y-93513400D01*
X136493500Y-94775500D02*
X135901200Y-94183200D01*
X143201300Y-76984100D02*
X143201300Y-76842700D01*
X142833300Y-76984100D02*
X143201300Y-76984100D01*
X142669100Y-77148300D02*
X142833300Y-76984100D01*
X142669100Y-77646000D02*
X142669100Y-77148300D01*
X143201300Y-76984100D02*
X146184000Y-76984100D01*
X137077200Y-92337400D02*
X139748900Y-92337400D01*
X135901200Y-93513400D02*
X137077200Y-92337400D01*
X143372400Y-113123900D02*
X149334000Y-113123900D01*
X142966100Y-112717600D02*
X143372400Y-113123900D01*
X149334000Y-115026600D02*
X150299500Y-115992100D01*
X149334000Y-113123900D02*
X149334000Y-115026600D01*
X150743200Y-111714700D02*
X150743200Y-109648500D01*
X149334000Y-113123900D02*
X150743200Y-111714700D01*
X150743200Y-109648500D02*
X149772600Y-108677900D01*
X154251200Y-109648500D02*
X150743200Y-109648500D01*
X155084600Y-108815100D02*
X154251200Y-109648500D01*
X155084600Y-108303700D02*
X155084600Y-108815100D01*
X142132200Y-88375600D02*
X141257400Y-88375600D01*
X143369600Y-89613000D02*
X142132200Y-88375600D01*
X150156000Y-89613000D02*
X143369600Y-89613000D01*
X140946700Y-88029600D02*
X139532700Y-88029600D01*
X141257400Y-87718900D02*
X140946700Y-88029600D01*
X135623600Y-85613000D02*
X134831000Y-85613000D01*
X135790900Y-85780300D02*
X135623600Y-85613000D01*
X136215300Y-85780300D02*
X135790900Y-85780300D01*
X136591400Y-86156400D02*
X136215300Y-85780300D01*
X136661000Y-86156400D02*
X136591400Y-86156400D01*
X137426600Y-86922000D02*
X136661000Y-86156400D01*
X137426600Y-87346500D02*
X137426600Y-86922000D01*
X137697600Y-87617500D02*
X137426600Y-87346500D01*
X138851800Y-87617500D02*
X137697600Y-87617500D01*
X138962500Y-87506800D02*
X138851800Y-87617500D01*
X139485300Y-88029600D02*
X138962500Y-87506800D01*
X139532700Y-88029600D02*
X139485300Y-88029600D01*
X141966100Y-94748100D02*
X141993500Y-94775500D01*
X141966100Y-92925500D02*
X141966100Y-94748100D01*
X142257400Y-92634200D02*
X141966100Y-92925500D01*
X142257400Y-90410800D02*
X142257400Y-92634200D01*
X141744400Y-89897800D02*
X142257400Y-90410800D01*
X140721900Y-89897800D02*
X141744400Y-89897800D01*
X139532700Y-88708600D02*
X140721900Y-89897800D01*
X139532700Y-88029600D02*
X139532700Y-88708600D01*
X159313700Y-93911300D02*
X161073000Y-93911300D01*
X159238800Y-93986200D02*
X159313700Y-93911300D01*
X154649900Y-74684300D02*
X156992900Y-74684300D01*
X154482800Y-74851400D02*
X154649900Y-74684300D01*
X154482800Y-75600800D02*
X154482800Y-74851400D01*
X153934900Y-76148700D02*
X154482800Y-75600800D01*
X152516600Y-76148700D02*
X153934900Y-76148700D01*
X150843000Y-74475100D02*
X152516600Y-76148700D01*
X146442900Y-74475100D02*
X150843000Y-74475100D01*
X146184000Y-74734000D02*
X146442900Y-74475100D01*
X166402200Y-74149300D02*
X167929900Y-75677000D01*
X159405300Y-74149300D02*
X166402200Y-74149300D01*
X158870300Y-74684300D02*
X159405300Y-74149300D01*
X156992900Y-74684300D02*
X158870300Y-74684300D01*
X169180000Y-75677000D02*
X167929900Y-75677000D01*
X166688500Y-78624000D02*
X165713400Y-78624000D01*
X165204400Y-78115000D02*
X160009000Y-78115000D01*
X165713400Y-78624000D02*
X165204400Y-78115000D01*
%TO.N,/PIC.RC7*%
X151703100Y-89448500D02*
X151703100Y-89662700D01*
X150867600Y-88613000D02*
X151703100Y-89448500D01*
X150156000Y-88613000D02*
X150867600Y-88613000D01*
%TO.N,/PIC.RC6*%
X149430400Y-88113000D02*
X149007500Y-88535900D01*
X150156000Y-88113000D02*
X149430400Y-88113000D01*
%TO.N,/Actel.VCC*%
X142748700Y-81311000D02*
X142315500Y-81311000D01*
X143177300Y-80882400D02*
X142748700Y-81311000D01*
X143177300Y-80493300D02*
X143177300Y-80882400D01*
X142993500Y-80309500D02*
X143177300Y-80493300D01*
X142993500Y-79450500D02*
X142993500Y-80309500D01*
X140864400Y-89301700D02*
X140092400Y-88529700D01*
X141513300Y-89301700D02*
X140864400Y-89301700D01*
X146121600Y-110309300D02*
X143807100Y-112623800D01*
X146121600Y-109468200D02*
X146121600Y-110309300D01*
X148496900Y-89113000D02*
X150156000Y-89113000D01*
X148397400Y-89212500D02*
X148496900Y-89113000D01*
X143503300Y-89212500D02*
X148397400Y-89212500D01*
X141507600Y-87216800D02*
X143503300Y-89212500D01*
X140336900Y-87216800D02*
X141507600Y-87216800D01*
X140024300Y-87529400D02*
X140336900Y-87216800D01*
X149157100Y-87613000D02*
X150156000Y-87613000D01*
X148496900Y-88273200D02*
X149157100Y-87613000D01*
X148496900Y-89113000D02*
X148496900Y-88273200D01*
X136038200Y-84613000D02*
X134831000Y-84613000D01*
X136738700Y-85313500D02*
X136038200Y-84613000D01*
X136830200Y-85313500D02*
X136738700Y-85313500D01*
X138523300Y-87006600D02*
X136830200Y-85313500D01*
X138523300Y-87006700D02*
X138523300Y-87006600D01*
X139501600Y-87006700D02*
X138523300Y-87006700D01*
X140024300Y-87529400D02*
X139501600Y-87006700D01*
X141643500Y-89301700D02*
X141513300Y-89301700D01*
X142607500Y-90265700D02*
X141643500Y-89301700D01*
X142607500Y-91485700D02*
X142607500Y-90265700D01*
X142993500Y-91871700D02*
X142607500Y-91485700D01*
X142993500Y-94775500D02*
X142993500Y-91871700D01*
X142993500Y-95906100D02*
X145991000Y-98903600D01*
X142993500Y-94775500D02*
X142993500Y-95906100D01*
%TO.N,/Game.CS2*%
X152345600Y-86327200D02*
X152534900Y-86327200D01*
X152131400Y-86113000D02*
X152345600Y-86327200D01*
X150156000Y-86113000D02*
X152131400Y-86113000D01*
X156867300Y-94098200D02*
X156502000Y-94098200D01*
X158031300Y-95262200D02*
X156867300Y-94098200D01*
X162533100Y-95262200D02*
X158031300Y-95262200D01*
X162749200Y-95046100D02*
X162533100Y-95262200D01*
X162749200Y-94531200D02*
X162749200Y-95046100D01*
X161629100Y-93411100D02*
X162749200Y-94531200D01*
X157560400Y-93411100D02*
X161629100Y-93411100D01*
X156870600Y-92721300D02*
X157560400Y-93411100D01*
%TO.N,/Game.CS1*%
X152417000Y-85613000D02*
X152481000Y-85677000D01*
X150156000Y-85613000D02*
X152417000Y-85613000D01*
%TO.N,/SD.Pin9*%
X155620000Y-90437500D02*
X156995100Y-90437500D01*
X157254400Y-90178200D02*
X157606700Y-90178200D01*
X156995100Y-90437500D02*
X157254400Y-90178200D01*
X151273600Y-85026800D02*
X152185500Y-85026800D01*
X150859800Y-84613000D02*
X151273600Y-85026800D01*
X150156000Y-84613000D02*
X150859800Y-84613000D01*
%TO.N,/SD.Pin1*%
X155620000Y-81637500D02*
X154244900Y-81637500D01*
X151134600Y-84113000D02*
X151314300Y-84292700D01*
X150156000Y-84113000D02*
X151134600Y-84113000D01*
X153430500Y-81637500D02*
X152742300Y-82325700D01*
X154244900Y-81637500D02*
X153430500Y-81637500D01*
%TO.N,/SD.Pin8*%
X155620000Y-89337500D02*
X154244900Y-89337500D01*
X153195900Y-88288500D02*
X154244900Y-89337500D01*
X153195900Y-85329800D02*
X153195900Y-88288500D01*
X152092300Y-84226200D02*
X153195900Y-85329800D01*
X151955200Y-84226200D02*
X152092300Y-84226200D01*
X151342000Y-83613000D02*
X151955200Y-84226200D01*
X150156000Y-83613000D02*
X151342000Y-83613000D01*
%TO.N,/SD.Pin7*%
X155620000Y-88237500D02*
X154244900Y-88237500D01*
X153546000Y-87538600D02*
X154244900Y-88237500D01*
X153546000Y-85140700D02*
X153546000Y-87538600D01*
X152281400Y-83876100D02*
X153546000Y-85140700D01*
X152100200Y-83876100D02*
X152281400Y-83876100D01*
X151337100Y-83113000D02*
X152100200Y-83876100D01*
X150156000Y-83113000D02*
X151337100Y-83113000D01*
%TO.N,/SD.Pin6*%
X155620000Y-87137500D02*
X154244900Y-87137500D01*
X154244900Y-85337300D02*
X154244900Y-87137500D01*
X152433600Y-83526000D02*
X154244900Y-85337300D01*
X152245200Y-83526000D02*
X152433600Y-83526000D01*
X151332200Y-82613000D02*
X152245200Y-83526000D01*
X150156000Y-82613000D02*
X151332200Y-82613000D01*
%TO.N,/SD.Pin4*%
X154402500Y-84937500D02*
X155620000Y-84937500D01*
X152640900Y-83175900D02*
X154402500Y-84937500D01*
X152390200Y-83175900D02*
X152640900Y-83175900D01*
X151327300Y-82113000D02*
X152390200Y-83175900D01*
X150156000Y-82113000D02*
X151327300Y-82113000D01*
%TO.N,/SD.Pin2*%
X155620000Y-82737500D02*
X154244900Y-82737500D01*
X154156600Y-82825800D02*
X154244900Y-82737500D01*
X152535200Y-82825800D02*
X154156600Y-82825800D01*
X151322400Y-81613000D02*
X152535200Y-82825800D01*
X150156000Y-81613000D02*
X151322400Y-81613000D01*
%TO.N,/GND*%
X143328000Y-77647000D02*
X143978100Y-77647000D01*
X163756800Y-79659500D02*
X162888900Y-79659500D01*
X155826700Y-78369000D02*
X157715000Y-78369000D01*
X155733000Y-78275300D02*
X155826700Y-78369000D01*
X155581900Y-78426400D02*
X155568800Y-78426400D01*
X155733000Y-78275300D02*
X155581900Y-78426400D01*
X170430100Y-73421200D02*
X170430100Y-77177000D01*
X170335700Y-73326800D02*
X170430100Y-73421200D01*
X166669300Y-73326800D02*
X170335700Y-73326800D01*
X166593600Y-73402500D02*
X166669300Y-73326800D01*
X165943500Y-73402500D02*
X166593600Y-73402500D01*
X169180000Y-77177000D02*
X170430100Y-77177000D01*
X155620000Y-83837500D02*
X156995100Y-83837500D01*
X155733000Y-76525200D02*
X155733000Y-77400200D01*
X155733000Y-77400200D02*
X155733000Y-78275300D01*
X153270000Y-78863200D02*
X153270000Y-77798100D01*
X155620000Y-91537500D02*
X154244900Y-91537500D01*
X161847400Y-78618000D02*
X162888900Y-79659500D01*
X157964000Y-78618000D02*
X161847400Y-78618000D01*
X157715000Y-78369000D02*
X157964000Y-78618000D01*
X150317500Y-80951500D02*
X150156000Y-81113000D01*
X142921700Y-78297100D02*
X143328000Y-78297100D01*
X142493500Y-78725300D02*
X142921700Y-78297100D01*
X142493500Y-79450500D02*
X142493500Y-78725300D01*
X143328000Y-77647000D02*
X143328000Y-78297100D01*
X149405600Y-79079900D02*
X147972700Y-77647000D01*
X149405600Y-80039600D02*
X149405600Y-79079900D01*
X150317500Y-80951500D02*
X149405600Y-80039600D01*
X147972700Y-77647000D02*
X143978100Y-77647000D01*
X134115000Y-74732000D02*
X134115000Y-76982100D01*
X151023000Y-86613000D02*
X150156000Y-86613000D01*
X154244900Y-89834900D02*
X151023000Y-86613000D01*
X154244900Y-91537500D02*
X154244900Y-89834900D01*
X134718500Y-81000500D02*
X134211100Y-81000500D01*
X134831000Y-81113000D02*
X134718500Y-81000500D01*
X134093900Y-85113000D02*
X134831000Y-85113000D01*
X133819400Y-84838500D02*
X134093900Y-85113000D01*
X133819400Y-81392200D02*
X133819400Y-84838500D01*
X134211100Y-81000500D02*
X133819400Y-81392200D01*
X133974700Y-80764100D02*
X134211100Y-81000500D01*
X133974700Y-78300800D02*
X133974700Y-80764100D01*
X133873000Y-78199100D02*
X133974700Y-78300800D01*
X133873000Y-77784900D02*
X133873000Y-78199100D01*
X133974700Y-77683200D02*
X133873000Y-77784900D01*
X133974700Y-77122400D02*
X133974700Y-77683200D01*
X134115000Y-76982100D02*
X133974700Y-77122400D01*
X141366900Y-92034900D02*
X141755700Y-91646100D01*
X141366900Y-92623500D02*
X140641200Y-93349200D01*
X141366900Y-92034900D02*
X141366900Y-92623500D01*
X135577100Y-93113000D02*
X134831000Y-93113000D01*
X136982000Y-91708100D02*
X135577100Y-93113000D01*
X141040100Y-91708100D02*
X136982000Y-91708100D01*
X141366900Y-92034900D02*
X141040100Y-91708100D01*
X151157200Y-121193300D02*
X148830600Y-121193300D01*
X155656400Y-125692500D02*
X151157200Y-121193300D01*
X158493100Y-125692500D02*
X155656400Y-125692500D01*
X158843200Y-126042600D02*
X158493100Y-125692500D01*
X159529900Y-126042600D02*
X158843200Y-126042600D01*
X160408000Y-125164500D02*
X159529900Y-126042600D01*
X142565400Y-122867000D02*
X142565400Y-122654600D01*
X143097600Y-123399200D02*
X142565400Y-122867000D01*
X146605200Y-123399200D02*
X143097600Y-123399200D01*
X148811100Y-121193300D02*
X146605200Y-123399200D01*
X148830600Y-121193300D02*
X148811100Y-121193300D01*
X153869000Y-77798100D02*
X153270000Y-77798100D01*
X154497300Y-78426400D02*
X153869000Y-77798100D01*
X155568800Y-78426400D02*
X154497300Y-78426400D01*
X156995100Y-81082500D02*
X156995100Y-83837500D01*
X156896200Y-80983600D02*
X156995100Y-81082500D01*
X152019500Y-80983600D02*
X156896200Y-80983600D01*
X151894700Y-81108400D02*
X152019500Y-80983600D01*
X150474400Y-81108400D02*
X151894700Y-81108400D01*
X150317500Y-80951500D02*
X150474400Y-81108400D01*
X154960200Y-76627400D02*
X148309000Y-76627400D01*
X155733000Y-77400200D02*
X154960200Y-76627400D01*
X148309000Y-76523200D02*
X148309000Y-76627400D01*
X148309000Y-77310700D02*
X147972700Y-77647000D01*
X148309000Y-76627400D02*
X148309000Y-77310700D01*
X154511300Y-93638100D02*
X154582900Y-93709700D01*
X154511300Y-93461700D02*
X154511300Y-93638100D01*
X150163500Y-93105500D02*
X150156000Y-93113000D01*
X152812900Y-93105500D02*
X150163500Y-93105500D01*
X153169100Y-93461700D02*
X152812900Y-93105500D01*
X154511300Y-93461700D02*
X153169100Y-93461700D01*
X142755400Y-83232400D02*
X142767600Y-83220200D01*
X140997800Y-83232400D02*
X142755400Y-83232400D01*
X139360500Y-81595100D02*
X140997800Y-83232400D01*
X138712100Y-81595100D02*
X139360500Y-81595100D01*
X138197700Y-81080700D02*
X138712100Y-81595100D01*
X137783400Y-81080700D02*
X138197700Y-81080700D01*
X137660300Y-81203800D02*
X137783400Y-81080700D01*
X134921800Y-81203800D02*
X137660300Y-81203800D01*
X134831000Y-81113000D02*
X134921800Y-81203800D01*
X142767600Y-83220200D02*
X142767600Y-83159100D01*
X143041000Y-83220200D02*
X142767600Y-83220200D01*
X143223300Y-83402500D02*
X143041000Y-83220200D01*
X145132400Y-83402500D02*
X143223300Y-83402500D01*
X146426300Y-84696400D02*
X145132400Y-83402500D01*
X146921400Y-84696400D02*
X146426300Y-84696400D01*
X148123000Y-85898000D02*
X146921400Y-84696400D01*
X149155400Y-85898000D02*
X148123000Y-85898000D01*
X149155400Y-86367800D02*
X149155400Y-85898000D01*
X149400600Y-86613000D02*
X149155400Y-86367800D01*
X150156000Y-86613000D02*
X149400600Y-86613000D01*
X149438400Y-85113000D02*
X150156000Y-85113000D01*
X149155400Y-85396000D02*
X149438400Y-85113000D01*
X149155400Y-85898000D02*
X149155400Y-85396000D01*
X142493500Y-93159900D02*
X142493500Y-94775500D01*
X142466200Y-93132600D02*
X142493500Y-93159900D01*
X162583400Y-92189900D02*
X163358000Y-92964500D01*
X159573300Y-92189900D02*
X162583400Y-92189900D01*
X159289700Y-92473500D02*
X159573300Y-92189900D01*
X158049800Y-92473500D02*
X159289700Y-92473500D01*
X157459800Y-91883500D02*
X158049800Y-92473500D01*
X155648000Y-91883500D02*
X157459800Y-91883500D01*
X155648000Y-91565500D02*
X155648000Y-91883500D01*
X155620000Y-91537500D02*
X155648000Y-91565500D01*
X155355000Y-92618000D02*
X154511300Y-93461700D01*
X155355000Y-92176500D02*
X155355000Y-92618000D01*
X155648000Y-91883500D02*
X155355000Y-92176500D01*
X163833000Y-92964500D02*
X163595500Y-92964500D01*
X163595500Y-92964500D02*
X163358000Y-92964500D01*
X164300800Y-93669800D02*
X164300800Y-94298000D01*
X163595500Y-92964500D02*
X164300800Y-93669800D01*
X163756800Y-79659500D02*
X163839000Y-79659500D01*
X167929900Y-79036300D02*
X167929900Y-77177000D01*
X167306700Y-79659500D02*
X167929900Y-79036300D01*
X163839000Y-79659500D02*
X167306700Y-79659500D01*
X169180000Y-77177000D02*
X167929900Y-77177000D01*
%TD*%
M02*
