%TF.GenerationSoftware,KiCad,Pcbnew,(6.0.2)*%
%TF.CreationDate,2022-11-22T14:27:25-06:00*%
%TF.ProjectId,REF1936,52454631-3933-4362-9e6b-696361645f70,rev?*%
%TF.SameCoordinates,Original*%
%TF.FileFunction,Soldermask,Bot*%
%TF.FilePolarity,Negative*%
%FSLAX46Y46*%
G04 Gerber Fmt 4.6, Leading zero omitted, Abs format (unit mm)*
G04 Created by KiCad (PCBNEW (6.0.2)) date 2022-11-22 14:27:25*
%MOMM*%
%LPD*%
G01*
G04 APERTURE LIST*
G04 Aperture macros list*
%AMRoundRect*
0 Rectangle with rounded corners*
0 $1 Rounding radius*
0 $2 $3 $4 $5 $6 $7 $8 $9 X,Y pos of 4 corners*
0 Add a 4 corners polygon primitive as box body*
4,1,4,$2,$3,$4,$5,$6,$7,$8,$9,$2,$3,0*
0 Add four circle primitives for the rounded corners*
1,1,$1+$1,$2,$3*
1,1,$1+$1,$4,$5*
1,1,$1+$1,$6,$7*
1,1,$1+$1,$8,$9*
0 Add four rect primitives between the rounded corners*
20,1,$1+$1,$2,$3,$4,$5,0*
20,1,$1+$1,$4,$5,$6,$7,0*
20,1,$1+$1,$6,$7,$8,$9,0*
20,1,$1+$1,$8,$9,$2,$3,0*%
G04 Aperture macros list end*
%ADD10R,2.000000X1.200000*%
%ADD11C,1.750000*%
%ADD12R,1.450000X1.150000*%
%ADD13R,1.000000X4.000000*%
%ADD14R,1.000000X3.500000*%
%ADD15R,2.250000X0.800000*%
%ADD16R,1.400000X1.800000*%
%ADD17C,1.800000*%
%ADD18R,2.000000X3.000000*%
%ADD19R,0.550000X1.630000*%
%ADD20C,1.100000*%
%ADD21R,0.800000X0.800000*%
%ADD22RoundRect,0.093000X0.562000X-0.372000X0.562000X0.372000X-0.562000X0.372000X-0.562000X-0.372000X0*%
%ADD23RoundRect,0.131000X0.524000X-1.489000X0.524000X1.489000X-0.524000X1.489000X-0.524000X-1.489000X0*%
%ADD24RoundRect,0.075000X0.662500X0.075000X-0.662500X0.075000X-0.662500X-0.075000X0.662500X-0.075000X0*%
%ADD25RoundRect,0.075000X0.075000X0.662500X-0.075000X0.662500X-0.075000X-0.662500X0.075000X-0.662500X0*%
G04 APERTURE END LIST*
D10*
%TO.C,J5*%
X169180000Y-74177000D03*
X169180000Y-75677000D03*
X169180000Y-77177000D03*
X169180000Y-78677000D03*
X169180000Y-80177000D03*
X169180000Y-81677000D03*
%TD*%
D11*
%TO.C,H2*%
X167577800Y-89956700D03*
%TD*%
D12*
%TO.C,L2*%
X166688500Y-78624000D03*
X166687500Y-76838000D03*
%TD*%
D13*
%TO.C,J3*%
X146184000Y-74734000D03*
D14*
X144192000Y-74964000D03*
X142169000Y-74974000D03*
X140144000Y-74969000D03*
X138124000Y-74958000D03*
X136097000Y-74966000D03*
D13*
X134115000Y-74732000D03*
%TD*%
D11*
%TO.C,H1*%
X136493800Y-89914700D03*
%TD*%
D15*
%TO.C,J4*%
X155620000Y-81637500D03*
X155620000Y-82737500D03*
X155620000Y-83837500D03*
X155620000Y-84937500D03*
X155620000Y-86037500D03*
X155620000Y-87137500D03*
X155620000Y-88237500D03*
X155620000Y-89337500D03*
X155620000Y-90437500D03*
X155620000Y-91537500D03*
D16*
X163833000Y-92964500D03*
X163839000Y-79659500D03*
D17*
X158845000Y-91291500D03*
X158845000Y-81357500D03*
%TD*%
D18*
%TO.C,J2*%
X148309000Y-76523200D03*
X155733000Y-76525200D03*
D19*
X153270000Y-78863200D03*
X152436000Y-78868200D03*
X151566000Y-78868200D03*
X150692000Y-78867200D03*
D20*
X150534835Y-75298800D03*
X153597000Y-75301200D03*
%TD*%
D21*
%TO.C,C7*%
X143328000Y-77647000D03*
X142019000Y-77646000D03*
%TD*%
%TO.C,C6*%
X165943500Y-73402500D03*
X164634500Y-73401500D03*
%TD*%
D22*
%TO.C,U2*%
X157715000Y-78369000D03*
X157715000Y-76079000D03*
D23*
X164405000Y-76079000D03*
D22*
X157715000Y-73789000D03*
%TD*%
D24*
%TO.C,U6*%
X150156000Y-81113000D03*
X150156000Y-81613000D03*
X150156000Y-82113000D03*
X150156000Y-82613000D03*
X150156000Y-83113000D03*
X150156000Y-83613000D03*
X150156000Y-84113000D03*
X150156000Y-84613000D03*
X150156000Y-85113000D03*
X150156000Y-85613000D03*
X150156000Y-86113000D03*
X150156000Y-86613000D03*
X150156000Y-87113000D03*
X150156000Y-87613000D03*
X150156000Y-88113000D03*
X150156000Y-88613000D03*
X150156000Y-89113000D03*
X150156000Y-89613000D03*
X150156000Y-90113000D03*
X150156000Y-90613000D03*
X150156000Y-91113000D03*
X150156000Y-91613000D03*
X150156000Y-92113000D03*
X150156000Y-92613000D03*
X150156000Y-93113000D03*
D25*
X148493500Y-94775500D03*
X147993500Y-94775500D03*
X147493500Y-94775500D03*
X146993500Y-94775500D03*
X146493500Y-94775500D03*
X145993500Y-94775500D03*
X145493500Y-94775500D03*
X144993500Y-94775500D03*
X144493500Y-94775500D03*
X143993500Y-94775500D03*
X143493500Y-94775500D03*
X142993500Y-94775500D03*
X142493500Y-94775500D03*
X141993500Y-94775500D03*
X141493500Y-94775500D03*
X140993500Y-94775500D03*
X140493500Y-94775500D03*
X139993500Y-94775500D03*
X139493500Y-94775500D03*
X138993500Y-94775500D03*
X138493500Y-94775500D03*
X137993500Y-94775500D03*
X137493500Y-94775500D03*
X136993500Y-94775500D03*
X136493500Y-94775500D03*
D24*
X134831000Y-93113000D03*
X134831000Y-92613000D03*
X134831000Y-92113000D03*
X134831000Y-91613000D03*
X134831000Y-91113000D03*
X134831000Y-90613000D03*
X134831000Y-90113000D03*
X134831000Y-89613000D03*
X134831000Y-89113000D03*
X134831000Y-88613000D03*
X134831000Y-88113000D03*
X134831000Y-87613000D03*
X134831000Y-87113000D03*
X134831000Y-86613000D03*
X134831000Y-86113000D03*
X134831000Y-85613000D03*
X134831000Y-85113000D03*
X134831000Y-84613000D03*
X134831000Y-84113000D03*
X134831000Y-83613000D03*
X134831000Y-83113000D03*
X134831000Y-82613000D03*
X134831000Y-82113000D03*
X134831000Y-81613000D03*
X134831000Y-81113000D03*
D25*
X136493500Y-79450500D03*
X136993500Y-79450500D03*
X137493500Y-79450500D03*
X137993500Y-79450500D03*
X138493500Y-79450500D03*
X138993500Y-79450500D03*
X139493500Y-79450500D03*
X139993500Y-79450500D03*
X140493500Y-79450500D03*
X140993500Y-79450500D03*
X141493500Y-79450500D03*
X141993500Y-79450500D03*
X142493500Y-79450500D03*
X142993500Y-79450500D03*
X143493500Y-79450500D03*
X143993500Y-79450500D03*
X144493500Y-79450500D03*
X144993500Y-79450500D03*
X145493500Y-79450500D03*
X145993500Y-79450500D03*
X146493500Y-79450500D03*
X146993500Y-79450500D03*
X147493500Y-79450500D03*
X147993500Y-79450500D03*
X148493500Y-79450500D03*
%TD*%
M02*
