M48
; DRILL file {KiCad (6.0.2)} date Tue Nov 22 14:27:27 2022
; FORMAT={-:-/ absolute / metric / decimal}
; #@! TF.CreationDate,2022-11-22T14:27:27-06:00
; #@! TF.GenerationSoftware,Kicad,Pcbnew,(6.0.2)
; #@! TF.FileFunction,Plated,1,2,PTH
FMAT,2
METRIC
; #@! TA.AperFunction,Plated,PTH,ViaDrill
T1C0.300
; #@! TA.AperFunction,Plated,PTH,ComponentDrill
T2C0.800
; #@! TA.AperFunction,Plated,PTH,ComponentDrill
T3C1.000
; #@! TA.AperFunction,Plated,PTH,ComponentDrill
T4C1.600
%
G90
G05
T1
X133.664Y-87.571
X134.004Y-94.486
X134.373Y-77.992
X134.475Y-94.03
X134.775Y-95.623
X135.018Y-73.377
X135.386Y-80.473
X135.886Y-77.177
X135.974Y-91.789
X135.985Y-85.267
X136.339Y-87.037
X136.527Y-88.639
X136.531Y-78.29
X136.601Y-80.704
X137.091Y-84.463
X137.138Y-82.138
X137.927Y-87.117
X137.99Y-81.626
X138.337Y-88.468
X138.393Y-77.99
X138.483Y-90.82
X138.833Y-90.17
X138.963Y-87.507
X139.005Y-85.791
X139.005Y-78.3
X139.174Y-82.115
X139.458Y-93.611
X139.749Y-92.337
X139.851Y-98.027
X140.024Y-87.529
X140.092Y-88.53
X140.44Y-78.212
X140.589Y-99.061
X140.641Y-93.349
X140.82Y-92.208
X141.043Y-80.59
X141.044Y-104.943
X141.067Y-73.41
X141.11Y-108.739
X141.21Y-78.089
X141.227Y-124.385
X141.257Y-87.719
X141.257Y-88.376
X141.464Y-103.425
X141.513Y-89.302
X141.591Y-82.382
X141.665Y-81.382
X141.756Y-91.646
X141.757Y-90.618
X141.787Y-112.207
X142.281Y-107.399
X142.315Y-81.311
X142.34Y-106.631
X142.466Y-93.133
X142.565Y-122.655
X142.661Y-80.684
X142.674Y-89.625
X142.768Y-83.159
X142.842Y-84.873
X142.966Y-112.718
X143.201Y-76.843
X143.273Y-122.867
X143.412Y-82.884
X143.497Y-101.556
X143.631Y-91.153
X143.691Y-122.366
X143.807Y-112.624
X143.867Y-85.523
X144.387Y-91.975
X144.658Y-78.165
X144.659Y-109.655
X144.999Y-85.104
X145.615Y-78.307
X145.724Y-92.112
X145.904Y-115.84
X145.904Y-117.556
X145.991Y-98.904
X146.122Y-109.468
X146.472Y-86.6
X147.197Y-87.101
X147.344Y-123.367
X147.466Y-82.796
X147.662Y-106.476
X147.665Y-103.311
X147.752Y-86.734
X147.769Y-88.698
X147.844Y-119.617
X147.859Y-82.269
X148.25Y-105.359
X148.449Y-83.133
X148.455Y-87.334
X148.641Y-85.381
X148.717Y-84.091
X148.75Y-92.788
X148.755Y-92.06
X148.828Y-86.756
X148.831Y-121.193
X148.997Y-84.735
X149.007Y-88.536
X149.009Y-107.356
X149.012Y-82.608
X149.566Y-100.959
X149.591Y-105.962
X149.602Y-104.321
X149.737Y-77.218
X149.773Y-108.678
X149.907Y-94.384
X150.299Y-115.992
X150.998Y-101.464
X151.314Y-84.293
X151.5Y-87.887
X151.542Y-80.258
X151.694Y-125.708
X151.703Y-89.663
X151.716Y-116.032
X152.082Y-91.892
X152.122Y-90.995
X152.139Y-104.733
X152.185Y-85.027
X152.219Y-116.457
X152.427Y-94.261
X152.455Y-77.651
X152.481Y-85.677
X152.532Y-105.745
X152.535Y-86.327
X152.596Y-107.268
X152.606Y-93.606
X152.635Y-75.528
X152.742Y-82.326
X152.886Y-77.127
X153.031Y-98.469
X153.168Y-104.646
X153.617Y-110.557
X153.639Y-118.649
X153.804Y-92.962
X154.027Y-102.489
X154.054Y-111.331
X154.182Y-98.732
X154.35Y-79.18
X154.527Y-108.665
X154.583Y-93.71
X154.76Y-92.41
X155.085Y-106.665
X155.085Y-107.315
X155.085Y-108.304
X155.376Y-117.16
X155.505Y-113.167
X155.569Y-78.426
X155.855Y-92.413
X156.416Y-124.755
X156.502Y-94.098
X156.639Y-101.482
X156.871Y-92.721
X156.993Y-74.684
X157.249Y-117.658
X157.607Y-90.178
X157.762Y-107.788
X157.824Y-103.3
X157.988Y-86.629
X158.28Y-108.207
X158.307Y-126.213
X158.53Y-82.672
X158.639Y-109.184
X159.206Y-102.736
X159.237Y-125.536
X159.239Y-93.986
X159.409Y-86.87
X159.956Y-89.822
X159.977Y-92.711
X160.009Y-78.115
X160.047Y-109.614
X160.187Y-105.279
X160.408Y-125.164
X160.536Y-113.168
X160.541Y-108.111
X160.597Y-103.712
X160.902Y-126.662
X161.044Y-106.356
X161.044Y-115.264
X161.073Y-93.911
X161.247Y-103.733
X161.319Y-102.404
X161.51Y-98.058
X161.517Y-105.155
X161.862Y-102.781
X161.897Y-103.804
X162.104Y-99.36
X162.235Y-94.745
X162.267Y-126.743
X162.913Y-105.919
X163.127Y-98.555
X164.301Y-94.298
X165.179Y-119.066
T2
X169.18Y-74.177
X169.18Y-75.677
X169.18Y-77.177
X169.18Y-78.677
X169.18Y-80.177
X169.18Y-81.677
T3
X150.535Y-75.299
X153.597Y-75.301
T4
X158.845Y-81.358
X158.845Y-91.291
T0
M30
