%TF.GenerationSoftware,KiCad,Pcbnew,(6.0.2)*%
%TF.CreationDate,2022-11-22T14:27:25-06:00*%
%TF.ProjectId,REF1936,52454631-3933-4362-9e6b-696361645f70,rev?*%
%TF.SameCoordinates,Original*%
%TF.FileFunction,Paste,Top*%
%TF.FilePolarity,Positive*%
%FSLAX46Y46*%
G04 Gerber Fmt 4.6, Leading zero omitted, Abs format (unit mm)*
G04 Created by KiCad (PCBNEW (6.0.2)) date 2022-11-22 14:27:25*
%MOMM*%
%LPD*%
G01*
G04 APERTURE LIST*
%ADD10R,0.800000X0.800000*%
%ADD11R,2.000000X3.000000*%
%ADD12R,0.550000X1.630000*%
%ADD13R,1.651000X0.431800*%
%ADD14R,0.300000X1.300000*%
%ADD15R,0.950000X2.250000*%
%ADD16R,1.700000X1.350000*%
%ADD17R,0.750000X1.600000*%
%ADD18R,0.870000X1.600000*%
%ADD19R,0.800000X1.600000*%
%ADD20R,1.200000X7.250000*%
%ADD21R,1.200000X6.000000*%
%ADD22R,1.200000X6.750000*%
%ADD23R,1.450000X1.150000*%
G04 APERTURE END LIST*
D10*
%TO.C,C2*%
X146780000Y-110443000D03*
X145471000Y-110444000D03*
%TD*%
%TO.C,C3*%
X149197500Y-115792500D03*
X149198500Y-117101500D03*
%TD*%
%TO.C,C1*%
X140086000Y-116780000D03*
X141395000Y-116779000D03*
%TD*%
%TO.C,C4*%
X149188000Y-118567000D03*
X149189000Y-119876000D03*
%TD*%
D11*
%TO.C,J1*%
X148288000Y-76527000D03*
X155712000Y-76525000D03*
D12*
X150751000Y-78865000D03*
X151585000Y-78870000D03*
X152455000Y-78870000D03*
X153329000Y-78869000D03*
%TD*%
D13*
%TO.C,U3*%
X150848200Y-108050000D03*
X150848200Y-107399999D03*
X150848200Y-106750001D03*
X150848200Y-106099999D03*
X150848200Y-105450001D03*
X150848200Y-104800002D03*
X150848200Y-104150001D03*
X150848200Y-103500002D03*
X150848200Y-102850001D03*
X150848200Y-102200002D03*
X143583800Y-102200000D03*
X143583800Y-102849998D03*
X143583800Y-103499999D03*
X143583800Y-104149998D03*
X143583800Y-104799999D03*
X143583800Y-105449998D03*
X143583800Y-106099999D03*
X143583800Y-106749998D03*
X143583800Y-107399999D03*
X143583800Y-108049998D03*
%TD*%
D14*
%TO.C,U1*%
X153639000Y-120117000D03*
X154139000Y-120117000D03*
X154639000Y-120117000D03*
X155139000Y-120117000D03*
X155639000Y-120117000D03*
X156139000Y-120117000D03*
X156639000Y-120117000D03*
X157139000Y-120117000D03*
X157639000Y-120117000D03*
X158139000Y-120117000D03*
X158639000Y-120117000D03*
X159139000Y-120117000D03*
X159639000Y-120117000D03*
X160139000Y-120117000D03*
X160639000Y-120117000D03*
X161139000Y-120117000D03*
X161639000Y-120117000D03*
X162139000Y-120117000D03*
X162639000Y-120117000D03*
X163139000Y-120117000D03*
X163639000Y-120117000D03*
X164139000Y-120117000D03*
X164639000Y-120117000D03*
X165139000Y-120117000D03*
X165139000Y-100417000D03*
X164639000Y-100417000D03*
X164139000Y-100417000D03*
X163639000Y-100417000D03*
X163139000Y-100417000D03*
X162639000Y-100417000D03*
X162139000Y-100417000D03*
X161639000Y-100417000D03*
X161139000Y-100417000D03*
X160639000Y-100417000D03*
X160139000Y-100417000D03*
X159639000Y-100417000D03*
X159139000Y-100417000D03*
X158639000Y-100417000D03*
X158139000Y-100417000D03*
X157639000Y-100417000D03*
X157139000Y-100417000D03*
X156639000Y-100417000D03*
X156139000Y-100417000D03*
X155639000Y-100417000D03*
X155139000Y-100417000D03*
X154639000Y-100417000D03*
X154139000Y-100417000D03*
X153639000Y-100417000D03*
%TD*%
D10*
%TO.C,R1*%
X148505000Y-122145000D03*
X148506000Y-123454000D03*
%TD*%
D15*
%TO.C,U4*%
X164488800Y-96194700D03*
X163018800Y-96187700D03*
X161509800Y-96191700D03*
X160007800Y-96191700D03*
X158497800Y-96192700D03*
X156986800Y-96192700D03*
X155517800Y-96191700D03*
X154009800Y-96196700D03*
X152500800Y-96190700D03*
X150997800Y-96193700D03*
X149525800Y-96192700D03*
X148016800Y-96194700D03*
X146471800Y-96197700D03*
X144998800Y-96192700D03*
X143496800Y-96196700D03*
X141949800Y-96188700D03*
X140435800Y-96191700D03*
%TD*%
D16*
%TO.C,X1*%
X147230000Y-114534000D03*
X151400000Y-114534000D03*
X151399000Y-112032000D03*
X147232000Y-112032000D03*
%TD*%
D17*
%TO.C,Q1*%
X139640500Y-114990500D03*
D18*
X141707500Y-114984500D03*
D19*
X140713500Y-112803500D03*
%TD*%
D10*
%TO.C,C5*%
X159099000Y-122535000D03*
X160408000Y-122534000D03*
%TD*%
D20*
%TO.C,U5*%
X139684700Y-130795600D03*
D21*
X141226700Y-130149600D03*
X142741700Y-130157600D03*
X144200700Y-130149600D03*
X145707700Y-130156600D03*
X147270700Y-130156600D03*
X148769700Y-130156600D03*
D22*
X150196700Y-130499600D03*
D21*
X151693700Y-130164600D03*
X153256700Y-130164600D03*
X154763700Y-130156600D03*
X156238700Y-130156600D03*
X157737700Y-130156600D03*
X159236700Y-130148600D03*
X160751700Y-130156600D03*
X162266700Y-130156600D03*
D20*
X163773700Y-130789600D03*
%TD*%
D23*
%TO.C,L1*%
X150298500Y-123365000D03*
X150299500Y-121579000D03*
%TD*%
M02*
